<?xml version="1.0" encoding="UTF-8"?>
<svg width="500px" height="370px" viewBox="0 0 500 370" version="1.1" xmlns="http://www.w3.org/2000/svg" xmlns:xlink="http://www.w3.org/1999/xlink">
    <!-- Generator: Sketch 48.2 (47327) - http://www.bohemiancoding.com/sketch -->
    <title>Group 3</title>
    <desc>Created with Sketch.</desc>
    <defs></defs>
    <g id="Meerkat_3.4_Post-Sending_Freemium_VD" stroke="none" stroke-width="1" fill="none" fill-rule="evenodd" transform="translate(-551.000000, -186.000000)">
        <g id="Group-5" transform="translate(585.071819, 215.961046)">
            <g id="Group-12" transform="translate(89.438525, 0.000000)">
                <path d="M189.300017,105.439986 C222.160406,179.164322 210.609345,256.032571 163.502579,277.129123 C116.395813,298.226699 51.5693886,255.563849 18.71002,181.839513 C-14.1493487,108.115178 -2.59930867,31.2469292 44.5074575,10.1503765 C91.6142237,-10.9471996 156.440648,31.7156505 189.300017,105.439986" id="Fill-1" stroke="#F6D6D7" stroke-width="8"></path>
                <path d="M76.9425367,229.252846 C73.2663726,229.252846 70.2866472,226.393137 70.2866472,222.866261 L70.2866472,220.691536 L210.859941,220.691536 L210.859941,222.866261 C210.859941,226.393137 207.879184,229.252846 204.20302,229.252846 L76.9425367,229.252846 Z" id="Fill-4" fill="#1E5BCB"></path>
                <polygon id="Fill-6" fill="#1E5BCB" points="210.859941 219.74028 70.2866472 219.74028 70.2866472 75.1272987 139.723123 4.75628311 210.859941 75.1272987"></polygon>
                <path d="M44.5012434,93.5836329 C43.4218516,94.6546727 43.4218516,96.3900024 44.5012434,97.4610422 L49.9661795,102.883692 C51.0455713,103.954732 52.7944332,103.954732 53.873825,102.883692 L139.344559,18.0743071 C140.023299,17.4008193 141.12329,17.4008193 141.802029,18.0743071 L227.273794,102.883692 C228.352155,103.954732 230.101017,103.954732 231.180409,102.883692 L236.645345,97.4610422 C237.724737,96.3900024 237.724737,94.6546727 236.645345,93.5836329 L143.57561,1.2340463 C141.917384,-0.411348767 139.229204,-0.411348767 137.570978,1.2340463 L44.5012434,93.5836329 Z" id="Fill-8" fill="#19489A"></path>
                <path d="M182.365355,98.9306887 C182.365355,122.046991 163.654906,140.78598 140.573809,140.78598 C117.492713,140.78598 98.7812339,122.046991 98.7812339,98.9306887 C98.7812339,75.8143861 117.492713,57.0753973 140.573809,57.0753973 C163.654906,57.0753973 182.365355,75.8143861 182.365355,98.9306887" id="Fill-11" fill="#FFFFFF"></path>
                <path d="M142.393182,95.004584 L143.612079,90.2253307 C144.62607,86.2509338 144.62607,82.0879601 143.612079,78.1121346 L141.790063,70.9662204 C141.595619,70.2019133 140.500969,70.2019133 140.306525,70.9662204 L138.484509,78.1121346 C137.470518,82.0879601 137.470518,86.2509338 138.483069,90.2253307 L139.700933,95.0055148 C138.536197,95.47887 137.723836,96.5471572 137.723836,97.7891808 C137.723836,99.4703472 139.212206,100.833202 141.048204,100.833202 C142.884202,100.833202 144.372573,99.4703472 144.372573,97.7891808 C144.372573,96.5463424 143.559145,95.4774685 142.393182,95.004584 Z" id="Combined-Shape" fill="#19489A"></path>
                <path d="M164.318783,200.715147 L120.627084,200.715147 L120.627084,178.836245 C120.627084,166.753007 130.40795,156.957343 142.472933,156.957343 C154.537917,156.957343 164.318783,166.753007 164.318783,178.836245 L164.318783,200.715147 Z" id="Fill-23" fill="#19489A"></path>
                <path d="M120.19565,204.520174 C118.860008,204.520174 117.777625,203.828876 117.777625,202.975826 L117.777625,202.260137 C117.777625,201.406445 118.860008,200.715147 120.19565,200.715147 L164.750217,200.715147 C166.085859,200.715147 167.168242,201.406445 167.168242,202.260137 L167.168242,202.975826 C167.168242,203.828876 166.085859,204.520174 164.750217,204.520174 L120.19565,204.520174 Z" id="Fill-25" fill="#FF9980"></path>
                <path d="M120.627084,200.715147 L98.7812339,200.715147 L98.7812339,156.957343 C110.846218,156.957343 120.627084,166.753007 120.627084,178.836245 L120.627084,200.715147 Z" id="Fill-27" fill="#FF9980"></path>
                <path d="M164.318783,200.715147 L186.164633,200.715147 L186.164633,156.957343 C174.099649,156.957343 164.318783,166.753007 164.318783,178.836245 L164.318783,200.715147 Z" id="Fill-29" fill="#FF9980"></path>
                <path d="M212.96277,225.447819 L69.1346629,225.447819 C67.6721432,225.447819 66.4873689,224.254768 66.4873689,222.783062 L66.4873689,221.454812 C66.4873689,219.983107 67.6721432,218.789023 69.1346629,218.789023 L212.96277,218.789023 C214.424265,218.789023 215.609039,219.983107 215.609039,221.454812 L215.609039,222.783062 C215.609039,224.254768 214.424265,225.447819 212.96277,225.447819" id="Fill-51" fill="#19489A"></path>
                <path d="M120.627084,183.718424 L136.796383,191.892814 C137.583904,192.290945 138.539286,192.125898 139.147591,191.486631 L151.937488,178.045746 C152.604675,177.344599 153.678187,177.221807 154.48647,177.754185 L168.103078,186.722805 C168.92195,187.262157 170.011076,187.128313 170.67499,186.406738 L182.234419,173.843388 C182.927759,173.089833 184.078273,172.981691 184.899888,173.592849 L198.512287,183.718424" id="Stroke-54" stroke="#F6D6D7" stroke-width="2"></path>
                <path d="M124.426362,200.715147 L135.516941,182.844702 C136.0833,181.932118 137.269336,181.629802 138.203435,182.159926 L153.618886,190.908553 C154.442659,191.376064 155.481414,191.201607 156.107263,190.490635 L168.173206,176.783578 C168.83103,176.036282 169.938336,175.88661 170.770949,176.432448 L184.421726,185.38151 C185.2821,185.945547 186.430027,185.76487 187.075543,184.963814 L196.612648,173.128705" id="Stroke-57" stroke="#F6D6D7" stroke-width="2"></path>
                <g id="Group-19" transform="translate(212.774273, 162.989330) rotate(3.000000) translate(-212.774273, -162.989330) translate(188.072204, 133.176489)">
                    <path d="M18.5904449,16.4398863 L11.0087182,13.5738816 C9.14762866,12.8701842 8.20538212,10.7816269 8.90341789,8.90817348 L9.40608505,7.56223705 C9.54548869,7.18836582 9.96064699,6.99886944 10.3330684,7.13919919 L17.1841979,9.72966589 L8.59204916,6.48057124 C6.73095963,5.77789819 5.78871309,3.68831652 6.48674886,1.81486314 L6.98941602,0.469951015 C7.12881966,0.0950554794 7.54397796,-0.094440898 7.91639938,0.0469131565 L24.8595388,6.45086641 C30.6483514,8.97475329 33.7600036,15.3551475 32.2051951,21.5101947 L29.3174028,33.5765046 C29.2410869,33.8807231 29.1393324,34.1808444 28.9846656,34.4522851 C28.0709103,36.0461033 26.0124171,36.6975611 24.297854,35.7254959 C23.0381335,35.0105312 22.3512907,33.5252894 22.6239927,32.0953599 C22.8315719,31.0034511 23.492976,30.1624969 24.3487312,29.6902924 C24.9877494,29.3379316 25.3276094,28.4201545 25.1271531,27.7144086 C24.4433629,25.3113896 22.6250103,24.1436822 15.3526172,21.3954726 L13.4253872,20.6661676 C11.5642977,19.9634946 10.6220512,17.8739129 11.3200869,16.0004595 L11.8227541,14.6555474 C11.9621577,14.2816762 12.377316,14.0911555 12.7497374,14.2325095 L18.5904449,16.4398863 Z" id="Fill-31" fill="#FF9980"></path>
                    <polygon id="Fill-33" fill="#FF9980" points="10.2021104 59.5061646 4.69312254 31.3367598 43.6711958 23.6124778 49.1791661 51.7829068"></polygon>
                    <path d="M40.6375893,50.5695154 L36.2224622,27.9948632 C36.1319007,27.5329018 36.365936,27.0688917 36.7892346,26.8691523 L43.6708905,23.6128875 L49.1798783,51.7833165 L41.5849235,51.3961293 C41.118888,51.371546 40.7271332,51.0314768 40.6375893,50.5695154" id="Fill-35" fill="#F6D6D7"></path>
                    <path d="M9.20593398,33.1783573 L13.6841489,56.0797628 C13.7594472,56.4608041 13.6139383,56.8520885 13.3076573,57.0897272 L10.2021104,59.5060621 L4.69312254,31.3366574 L8.47737186,32.3886184 C8.84979328,32.4910489 9.1316532,32.797316 9.20593398,33.1783573" id="Fill-37" fill="#F6D6D7"></path>
                    <path d="M38.4296187,39.2821893 L11.4453467,44.6290601" id="Stroke-39" stroke="#F6D6D7" stroke-width="0.25"></path>
                    <path d="M42.0844363,36.9414481 C41.9969275,36.9414481 41.908401,36.9496425 41.8198746,36.9670557 L33.5859017,38.5987732 C32.8491992,38.7452488 32.368918,39.4643107 32.5144269,40.2069316 L32.6080411,40.6832333 C32.7352342,41.3367398 33.3040418,41.7884581 33.9410248,41.7884581 C34.0275161,41.7884581 34.1160425,41.7802637 34.2055865,41.7628505 L42.4385419,40.1311331 C43.1752444,39.9846575 43.6555256,39.2645713 43.5100167,38.5229746 L43.4174201,38.0466729 C43.290227,37.3931665 42.7214194,36.9414481 42.0844363,36.9414481 M42.0844363,37.1975243 C42.610507,37.1975243 43.0663671,37.5754927 43.167104,38.0958395 L43.2607182,38.5721413 C43.3777358,39.1744324 42.9880161,39.7603348 42.3896998,39.8791541 L34.1557268,41.5108716 C34.0844987,41.5252118 34.0112354,41.532382 33.9410248,41.532382 C33.4139366,41.532382 32.959094,41.1544135 32.8573396,40.6340667 L32.764743,40.157765 C32.7067429,39.8658381 32.7667781,39.5687898 32.9306028,39.3219323 C33.0954451,39.0750749 33.3457611,38.9070889 33.6357614,38.8497278 L41.8687168,37.2190347 C41.9409625,37.2046944 42.0132082,37.1975243 42.0844363,37.1975243" id="Fill-41" fill="#DD7658"></path>
                    <path d="M42.2075592,40.2060097 C41.3243303,40.3811659 40.4675575,39.8014094 40.2935574,38.9133372 C40.1195572,38.0242406 40.69447,37.1617761 41.577699,36.9866199 C42.4609279,36.8114638 43.3177007,37.390196 43.4917008,38.2792925 C43.665701,39.168389 43.0907882,40.0308536 42.2075592,40.2060097" id="Fill-43" fill="#DD7658"></path>
                    <path d="M34.4468464,41.7433887 C33.564635,41.9185448 32.7068447,41.3398127 32.5328445,40.4507162 C32.3588443,39.5616196 32.9347747,38.699155 33.8180037,38.5239989 C34.7012326,38.3488428 35.5580054,38.927575 35.7320055,39.8166715 C35.9060057,40.705768 35.3300753,41.5682326 34.4468464,41.7433887" id="Fill-45" fill="#DD7658"></path>
                    <path d="M19.3558649,19.2299469 L7.04967746,17.5613545 C5.07869308,17.2940109 3.69686717,15.4697242 3.96244637,13.4866702 L4.15272726,12.0618623 C4.20563959,11.6654564 4.56890311,11.3878698 4.96269297,11.4411336 L16.4965639,13.005247 L3.11890169,11.1912033 C1.14893485,10.9238597 -0.232891064,9.09957298 0.0326881434,7.116519 L0.222969031,5.69273541 C0.276898909,5.29530517 0.638127332,5.01771858 1.03293474,5.07098243 L18.9691979,7.50268188 C25.1721513,8.66117055 29.621875,14.1811488 29.4702608,20.5297896 L29.3349273,32.9402659 C29.3278045,33.2537031 29.2962606,33.569189 29.2046816,33.8693103 C28.6684354,35.6280415 26.8063284,36.7260962 24.9198002,36.1637529 C23.531869,35.7499338 22.5336575,34.4572612 22.4817627,33.0017241 C22.4420785,31.8903535 22.8999737,30.9234098 23.6295533,30.2699034 C24.1739398,29.7823343 24.3011329,28.8112934 23.95008,28.1690544 C22.749377,25.9801151 20.7183575,25.2518345 13.0196131,24.2080679 L10.9794357,23.9304813 C9.00946885,23.6641621 7.6266254,21.8398754 7.8922046,19.8568214 L8.08248549,18.4320135 C8.13641537,18.0356076 8.49866134,17.758021 8.89245119,17.8112848 L19.3558649,19.2299469 Z" id="Fill-47" stroke="#FF9980" fill="#F6D6D7"></path>
                </g>
                <path d="M138.673655,239.24104 C138.673655,242.130593 137.609951,244.472952 136.299693,244.472952 C134.987087,244.472952 133.924557,242.130593 133.924557,239.24104 C133.924557,236.351488 134.987087,234.009129 136.299693,234.009129 C137.609951,234.009129 138.673655,236.351488 138.673655,239.24104" id="Fill-61" fill="#19489A"></path>
                <path d="M138.673655,252.558633 C138.673655,255.448186 137.609951,257.790545 136.299693,257.790545 C134.987087,257.790545 133.924557,255.448186 133.924557,252.558633 C133.924557,249.66908 134.987087,247.326722 136.299693,247.326722 C137.609951,247.326722 138.673655,249.66908 138.673655,252.558633" id="Fill-63" fill="#19489A"></path>
                <path d="M138.673655,265.876226 C138.673655,268.765779 137.609951,271.108137 136.299693,271.108137 C134.987087,271.108137 133.924557,268.765779 133.924557,265.876226 C133.924557,262.986673 134.987087,260.644314 136.299693,260.644314 C137.609951,260.644314 138.673655,262.986673 138.673655,265.876226" id="Fill-65" fill="#19489A"></path>
                <path d="M138.673655,280.145075 C138.673655,283.034628 137.609951,285.376987 136.299693,285.376987 C134.987087,285.376987 133.924557,283.034628 133.924557,280.145075 C133.924557,277.255522 134.987087,274.913164 136.299693,274.913164 C137.609951,274.913164 138.673655,277.255522 138.673655,280.145075" id="Fill-67" fill="#19489A"></path>
                <path d="M138.673655,293.462668 C138.673655,296.352221 137.609951,298.694579 136.299693,298.694579 C134.987087,298.694579 133.924557,296.352221 133.924557,293.462668 C133.924557,290.573115 134.987087,288.230757 136.299693,288.230757 C137.609951,288.230757 138.673655,290.573115 138.673655,293.462668" id="Fill-69" fill="#19489A"></path>
                <path d="M146.272212,243.997324 C146.272212,246.886877 145.208508,249.229235 143.897076,249.229235 C142.585644,249.229235 141.523114,246.886877 141.523114,243.997324 C141.523114,241.107771 142.585644,238.765412 143.897076,238.765412 C145.208508,238.765412 146.272212,241.107771 146.272212,243.997324" id="Fill-71" fill="#19489A"></path>
                <path d="M146.272212,257.314916 C146.272212,260.204469 145.208508,262.546828 143.897076,262.546828 C142.585644,262.546828 141.523114,260.204469 141.523114,257.314916 C141.523114,254.425363 142.585644,252.083005 143.897076,252.083005 C145.208508,252.083005 146.272212,254.425363 146.272212,257.314916" id="Fill-73" fill="#19489A"></path>
                <path d="M146.272212,271.583766 C146.272212,274.473319 145.208508,276.815677 143.897076,276.815677 C142.585644,276.815677 141.523114,274.473319 141.523114,271.583766 C141.523114,268.694213 142.585644,266.351854 143.897076,266.351854 C145.208508,266.351854 146.272212,268.694213 146.272212,271.583766" id="Fill-75" fill="#19489A"></path>
                <path d="M146.272212,284.901358 C146.272212,287.790911 145.208508,290.13327 143.897076,290.13327 C142.585644,290.13327 141.523114,287.790911 141.523114,284.901358 C141.523114,282.011805 142.585644,279.669447 143.897076,279.669447 C145.208508,279.669447 146.272212,282.011805 146.272212,284.901358" id="Fill-77" fill="#19489A"></path>
                <path d="M146.272212,298.218951 C146.272212,301.108504 145.208508,303.450862 143.897076,303.450862 C142.585644,303.450862 141.523114,301.108504 141.523114,298.218951 C141.523114,295.329398 142.585644,292.98704 143.897076,292.98704 C145.208508,292.98704 146.272212,295.329398 146.272212,298.218951" id="Fill-79" fill="#19489A"></path>
                <path d="M146.272212,312.488309 C146.272212,315.377581 145.208508,317.719712 143.897076,317.719712 C142.585644,317.719712 141.523114,315.377581 141.523114,312.488309 C141.523114,309.59802 142.585644,307.255889 143.897076,307.255889 C145.208508,307.255889 146.272212,309.59802 146.272212,312.488309" id="Fill-81" fill="#19489A"></path>
            </g>
            <path d="M431.860305,286.440822 C419.753977,298.617099 400.124133,298.617099 388.015203,286.440822 C378.331702,276.698754 378.331702,260.905191 388.015203,251.163123 C395.765126,243.368421 408.326873,243.368421 416.076797,251.163123 C422.273093,257.397837 422.273093,267.506345 416.076797,273.74106 C411.116638,278.727261 403.075246,278.727261 398.117689,273.74106 C394.151643,269.752099 394.151643,263.281816 398.117689,259.290238 C401.290005,256.099593 406.434934,256.099593 409.609853,259.290238 C412.149787,261.844848 412.149787,265.985619 409.609853,268.54023 C407.579987,270.581824 404.285358,270.581824 402.255492,268.54023 C400.628997,266.904337 400.628997,264.252882 402.255492,262.619607" id="Page-1" stroke="#F6D6D7" stroke-width="2" stroke-linecap="round" stroke-linejoin="round"></path>
            <path d="M365.420258,33.8441391 C357.14522,42.0978033 343.729759,42.0978033 335.459062,33.8441391 C328.842505,27.2412078 328.842505,16.5309412 335.459062,9.92367723 C340.75144,4.64219868 349.33473,4.64219868 354.631449,9.92367723 C358.868824,14.1523262 358.868824,21.0065502 354.631449,25.2351991 C351.245022,28.6146522 345.74859,28.6146522 342.362163,25.2351991 C339.64868,22.5273041 339.64868,18.1383477 342.362163,15.4347853" id="Page-1-Copy" stroke="#F6D6D7" stroke-width="2" stroke-linecap="round" stroke-linejoin="round" transform="translate(347.958451, 22.998478) rotate(99.000000) translate(-347.958451, -22.998478) "></path>
            <path d="M23.8502733,228.826016 C18.8045181,233.778214 10.624359,233.778214 5.58125112,228.826016 C1.54676485,224.864257 1.54676485,218.438097 5.58125112,214.473738 C8.80831068,211.304851 14.0420242,211.304851 17.271731,214.473738 C19.8554965,217.010928 19.8554965,221.123462 17.271731,223.660652 C15.2068365,225.688323 11.8553538,225.688323 9.79045924,223.660652 C8.1358963,222.035914 8.1358963,219.402541 9.79045924,217.780403" id="Page-1-Copy-2" stroke="#F6D6D7" stroke-width="2" stroke-linecap="round" stroke-linejoin="round" transform="translate(13.202830, 222.318619) rotate(11.000000) translate(-13.202830, -222.318619) "></path>
        </g>
        <rect id="Rectangle-2" x="551" y="187" width="500.003943" height="370"></rect>
    </g>
</svg>