<?xml version="1.0" encoding="utf-8"?>
<!-- Generator: Adobe Illustrator 19.2.1, SVG Export Plug-In . SVG Version: 6.00 Build 0)  -->
<svg version="1.1" id="Layer_3" xmlns="http://www.w3.org/2000/svg" xmlns:xlink="http://www.w3.org/1999/xlink" x="0px" y="0px"
	 width="270.1px" height="76px" viewBox="0 0.1 270.1 76" enable-background="new 0 0.1 270.1 76" xml:space="preserve">
<g>
	<g>
		<rect x="142.8" y="50.7" fill="#FFFFFF" width="13" height="2.7"/>
		<rect x="161.9" y="50.7" fill="#FFFFFF" width="13" height="2.7"/>
		<rect x="123.8" y="50.7" fill="#FFFFFF" width="13" height="2.7"/>
		<rect x="200" y="50.7" fill="#FFFFFF" width="13" height="2.7"/>
		<rect x="219" y="50.7" fill="#FFFFFF" width="13" height="2.7"/>
		<rect x="180.9" y="50.7" fill="#FFFFFF" width="13" height="2.7"/>
		<rect x="257.1" y="50.7" fill="#FFFFFF" width="13" height="2.7"/>
		<rect x="238.1" y="50.7" fill="#FFFFFF" width="13" height="2.7"/>
	</g>
	<path fill="#FFFFFF" d="M0,52.9h13.9c11.5,0,21.8-6.7,21.8-19.3c0-14.2-10.4-19.5-22.9-19.5H0V52.9z M8.5,22.1h5
		c7.2,0,13.3,3.6,13.3,11.2c0,8.8-6,11.8-13.9,11.8H8.5V22.1z"/>
	<path fill="#FFFFFF" d="M37.6,39.6c0,8.5,6.6,14,14.8,14s14.8-5.5,14.8-14s-6.6-13.9-14.8-13.9C44.1,25.7,37.6,31.2,37.6,39.6
		 M45.8,39.6c0-4,2.5-6.7,6.6-6.7s6.6,2.7,6.6,6.7s-2.5,6.7-6.6,6.7C48.2,46.4,45.8,43.6,45.8,39.6"/>
	<path fill="#FFFFFF" d="M93.7,29.3c-2.6-2.6-6.3-3.6-9.5-3.6c-8.2,0-14.8,5.5-14.8,13.9c0,8.5,6.6,14,14.8,14
		c3.1,0,6.9-0.9,9.5-3.6l-5.4-5.7c-0.9,1.1-2.2,2-4,2c-4.1,0-6.6-2.7-6.6-6.7s2.5-6.7,6.6-6.7c1.7,0,3.2,0.9,4,2L93.7,29.3z"/>
	<path fill="#FFFFFF" d="M121.7,26.4h-8.2v13.2c0,3.5-0.7,6.8-4.9,6.8c-4.2,0-4.3-3.9-4.3-7v-13h-8.2V41c0,7.1,1.5,12.6,9.8,12.6
		c4,0,6.7-2.2,7.8-4.3h0.1v3.6h7.9L121.7,26.4z"/>
	<path fill="#FFFFFF" d="M196.4,46.7c-1.4-1.4,12.8-12.8,17.1-12.2C211.9,39.4,197.8,48.1,196.4,46.7 M213.2,51.4
		c1.9-2.5,7.3-15.8,7.3-17.7c0-3.2-2.9-4.9-6.1-4.9c-10.3,0-27,17.6-30.5,17.6c-4,0,2.1-8.4,2.1-11.7c0-2.2-2-4.4-3.5-4.4
		c-3,0-12.7,9.1-19,11.3c1.4-2.3,2.1-4.9,2.1-6.3c0-11.3-31.9-7-31.9-13.4c0-5.7,20-15.5,31.7-15.5c1.6,0,12.4,0.7,12.4,4.5
		c0,1.4-2.3,1.9-2.3,3.3s1.2,1.6,2.6,1.6c2.1,0,3.5-1.9,3.5-4.2c0-9.6-8.3-11.5-15-11.5c-17.3,0-37.8,15-37.8,21.8
		c0,8.9,29.1,7.3,29.1,15.2c0,9.6-31.2,18.3-31.2,20.6c0,2.4,1.6,2.1,3.5,2.1c12.7,0,46-21.1,48.8-23.9c0.2,4.9-1.8,9.6-1.8,11.7
		c0,2.1,1.6,5,4,5c2.3,0,5.9-3.5,11-6.3c-0.2,1.6,1.2,4.2,3,4.2c4,0,16.2-9.9,18.5-11.5c-0.6,4.4-3.4,9.6-5,11.6
		c-1.1-0.3-2.8-0.5-4-0.5c-4.9,0-18.2,14.2-18.2,20.8c0,2.6,1.4,5.2,4,5.2c3.6,0,16.5-10.7,21.2-21.5c2.1,0.2,5.5,1.8,5.5,0.2
		C217.3,53,215.1,51.9,213.2,51.4 M191.6,70.4c-0.8,0-1.4-0.4-1.4-2.2c0-6,12.6-14.6,16.9-14.6C204.6,59.2,193.9,70.4,191.6,70.4
		 M187.5,17.2c0-1.7,1.3-3.2,2.9-3.2c1.6,0,2.9,1.4,2.9,3.2c0,1.7-1.3,3.2-2.9,3.2C188.8,20.4,187.5,19,187.5,17.2 M226.9,39.9
		c-1.6,2.1-5.9,7-5.9,8.9s0.9,3,2.3,3c3.5,0,15-13.8,20.4-13.8c4,0-2.6,14.3,6.1,14.3c3.1,0,13.6-6.9,13.6-11c0-0.7-0.7-1.9-1.7-1.9
		c-0.6,0-7.7,8.7-10.8,8.7c-2.6,0,0-5.4,0-8.9c0-3.7-0.6-6.8-4.2-6.8c-4.9,0-12,6.3-13.6,7.3c0.7-1.4,0.9-2.1,0.9-3.1
		c0-1.9-2.4-4-4.2-4c-1.6,0-10.3,4.5-10.3,10.1C219.6,44.1,224.8,39.2,226.9,39.9"/>
	<path fill="#FFFFFF" d="M263,66.6h1v-2.3h0.7l1.4,2.3h1.1l-1.4-2.3c0.7-0.1,1.3-0.6,1.3-1.5c0-1.1-0.6-1.7-1.9-1.7H263V66.6z
		 M264,61.9h0.7c0.6,0,1.3,0,1.3,0.8c0,0.7-0.7,0.8-1.3,0.8H264V61.9z M260,63.9c0,2.7,2.2,4.8,4.8,4.8c2.7,0,4.8-2.2,4.8-4.8
		c0-2.6-2.2-4.8-4.8-4.8C262.2,59,260,61.2,260,63.9 M260.9,63.9c0-2.2,1.8-4,4-4s4,1.8,4,4c0,2.2-1.8,4-4,4
		C262.6,67.8,260.9,66.1,260.9,63.9"/>
</g>
</svg>
