<?xml version="1.0" encoding="UTF-8" standalone="no"?>
<svg width="82px" height="88px" viewBox="0 0 82 88" version="1.1" xmlns="http://www.w3.org/2000/svg" xmlns:xlink="http://www.w3.org/1999/xlink">
    <!-- Generator: sketchtool 41.2 (35397) - http://www.bohemiancoding.com/sketch -->
    <title>9BA3588D-62E5-4195-9E6B-1F86C500D734</title>
    <desc>Created with sketchtool.</desc>
    <defs></defs>
    <g id="flow" stroke="none" stroke-width="1" fill="none" fill-rule="evenodd">
        <g id="02.empty-state@2x" transform="translate(-1396.000000, -700.000000)" fill="#666666">
            <g id="mask" transform="translate(1396.000000, 700.000000)">
                <path d="M4,21 L4,88 L0,88 L0,20 L0,17 L13,17 L13,21 L4,21 Z" id="Rectangle-277"></path>
                <path d="M63.7923308,0.84315534 C61.2942277,0.84315534 58.8839682,1.32550731 56.692755,2.28946109 C45.7809483,7.15423949 34.5180673,2.59627595 34.5180673,2.59627595 C32.151317,1.50104442 29.5220112,0.84315534 26.7614276,0.84315534 C16.7265562,0.84315534 8.57533307,8.99437849 8.57533307,19.03 C8.57533307,29.0656215 16.7258061,37.2168447 26.7614276,37.2168447 C29.2594557,37.2168447 31.6697152,36.6909085 33.8609284,35.7705389 C33.8609284,35.7705389 42.1869385,32.0895108 56.0356161,35.4637241 C58.5771534,36.0773538 61.0309221,37.2160195 63.7915057,37.2160195 C73.8271272,37.2160195 81.9783503,29.0656215 81.9783503,19.029925 C81.9783503,8.99437849 73.8271272,0.84315534 63.7923308,0.84315534 L63.7923308,0.84315534 Z M29.5227613,23.7191663 C26.1477979,23.7191663 22.9491217,21.6157216 22.9491217,19.029925 C22.9491217,16.4441284 26.148548,14.3406837 29.5227613,14.3406837 C32.8969746,14.3406837 36.0956508,16.4441284 36.0956508,19.029925 C36.0956508,21.6157216 32.8969746,23.7191663 29.5227613,23.7191663 L29.5227613,23.7191663 Z M61.0309221,23.7191663 C57.6567838,23.7191663 54.4580326,21.6157216 54.4580326,19.029925 C54.4580326,16.4441284 57.6567838,14.3406837 61.0309221,14.3406837 C64.4051354,14.3406837 67.6045617,16.4441284 67.6045617,19.029925 C67.6045617,21.6157216 64.4058855,23.7191663 61.0309221,23.7191663 L61.0309221,23.7191663 Z" id="Shape"></path>
            </g>
        </g>
    </g>
</svg>