<svg id="pdf" xmlns="http://www.w3.org/2000/svg" xmlns:xlink="http://www.w3.org/1999/xlink" width="32" height="40" viewBox="0 0 32 40">
  <g fill="none" fill-rule="evenodd">
    <path stroke="#777" d="M31.5,9.21837973 L22.8189972,0.5 L2,0.5 C1.17157288,0.5 0.5,1.17157288 0.5,2 L0.5,38 C0.5,38.8284271 1.17157288,39.5 2,39.5 L30,39.5 C30.8284271,39.5 31.5,38.8284271 31.5,38 L31.5,9.21837973 Z"/>
    <path stroke="#777" d="M30.7928932,9.5 L22.5,1.20710678 L22.5,8 C22.5,8.82842712 23.1715729,9.5 24,9.5 L30.7928932,9.5 Z"/>
    <path fill="#BF1F24" d="M9.04,29.512 C9.4133352,29.512 9.72533208,29.4373341 9.976,29.288 C10.2266679,29.1386659 10.4293326,28.9440012 10.584,28.704 C10.7386674,28.4639988 10.8479997,28.1840016 10.912,27.864 C10.9760003,27.5439984 11.008,27.2186683 11.008,26.888 C11.008,26.5573317 10.9733337,26.2320016 10.904,25.912 C10.8346663,25.5919984 10.7200008,25.3066679 10.56,25.056 C10.3999992,24.8053321 10.1946679,24.6026674 9.944,24.448 C9.69333208,24.2933326 9.38666848,24.216 9.024,24.216 C8.6506648,24.216 8.33866792,24.2933326 8.088,24.448 C7.83733208,24.6026674 7.63466744,24.8026654 7.48,25.048 C7.32533256,25.2933346 7.21600032,25.5759984 7.152,25.896 C7.08799968,26.2160016 7.056,26.546665 7.056,26.888 C7.056,27.2186683 7.09066632,27.5439984 7.16,27.864 C7.22933368,28.1840016 7.34133256,28.4639988 7.496,28.704 C7.65066744,28.9440012 7.85599872,29.1386659 8.112,29.288 C8.36800128,29.4373341 8.67733152,29.512 9.04,29.512 Z M4.864,22.728 L7.024,22.728 L7.024,23.784 L7.056,23.784 C7.33333472,23.3359978 7.6853312,23.0106677 8.112,22.808 C8.5386688,22.6053323 9.00799744,22.504 9.52,22.504 C10.1706699,22.504 10.7306643,22.6266654 11.2,22.872 C11.6693357,23.1173346 12.0586651,23.4426646 12.368,23.848 C12.6773349,24.2533354 12.9066659,24.7253306 13.056,25.264 C13.2053341,25.8026694 13.28,26.3653304 13.28,26.952 C13.28,27.5066694 13.2053341,28.0399974 13.056,28.552 C12.9066659,29.0640026 12.6800015,29.5173314 12.376,29.912 C12.0719985,30.3066686 11.6933356,30.6213322 11.24,30.856 C10.7866644,31.0906678 10.256003,31.208 9.648,31.208 C9.13599744,31.208 8.66400216,31.104001 8.232,30.896 C7.79999784,30.687999 7.44533472,30.3813354 7.168,29.976 L7.136,29.976 L7.136,33.896 L4.864,33.896 L4.864,22.728 Z M20.312,26.84 C20.312,26.498665 20.2800003,26.1706682 20.216,25.856 C20.1519997,25.5413318 20.0426674,25.2640012 19.888,25.024 C19.7333325,24.7839988 19.5333345,24.5893341 19.288,24.44 C19.0426654,24.2906659 18.7333352,24.216 18.36,24.216 C17.9866648,24.216 17.6720013,24.2906659 17.416,24.44 C17.1599987,24.5893341 16.9546674,24.7866654 16.8,25.032 C16.6453325,25.2773346 16.5333337,25.5573318 16.464,25.872 C16.3946663,26.1866682 16.36,26.514665 16.36,26.856 C16.36,27.1760016 16.3973329,27.4959984 16.472,27.816 C16.546667,28.1360016 16.6666658,28.4213321 16.832,28.672 C16.9973341,28.9226679 17.2053321,29.1253326 17.456,29.28 C17.7066679,29.4346674 18.0079982,29.512 18.36,29.512 C18.7333352,29.512 19.0453321,29.4373341 19.296,29.288 C19.5466679,29.1386659 19.7466659,28.9386679 19.896,28.688 C20.0453341,28.4373321 20.1519997,28.1520016 20.216,27.832 C20.2800003,27.5119984 20.312,27.181335 20.312,26.84 Z M20.344,29.944 L20.312,29.944 C20.045332,30.3920022 19.6960021,30.7146657 19.264,30.912 C18.8319978,31.1093343 18.3440027,31.208 17.8,31.208 C17.1813302,31.208 16.6373357,31.0880012 16.168,30.848 C15.6986643,30.6079988 15.3120015,30.2826687 15.008,29.872 C14.7039985,29.4613313 14.4746674,28.989336 14.32,28.456 C14.1653325,27.922664 14.088,27.3680029 14.088,26.792 C14.088,26.2373306 14.1653325,25.7013359 14.32,25.184 C14.4746674,24.6666641 14.7039985,24.2106686 15.008,23.816 C15.3120015,23.4213314 15.693331,23.1040012 16.152,22.864 C16.6106689,22.6239988 17.1439969,22.504 17.752,22.504 C18.2426691,22.504 18.7093311,22.607999 19.152,22.816 C19.5946689,23.024001 19.9439987,23.3306646 20.2,23.736 L20.232,23.736 L20.232,19.576 L22.504,19.576 L22.504,31 L20.344,31 L20.344,29.944 Z M24.512,24.248 L23.152,24.248 L23.152,22.728 L24.512,22.728 L24.512,22.088 C24.512,21.3519963 24.741331,20.7493357 25.2,20.28 C25.6586689,19.8106643 26.3519953,19.576 27.28,19.576 C27.4826676,19.576 27.6853323,19.5839999 27.888,19.6 C28.0906676,19.6160001 28.287999,19.6293333 28.48,19.64 L28.48,21.336 C28.213332,21.3039998 27.9360014,21.288 27.648,21.288 C27.3386651,21.288 27.117334,21.3599993 26.984,21.504 C26.850666,21.6480007 26.784,21.890665 26.784,22.232 L26.784,22.728 L28.352,22.728 L28.352,24.248 L26.784,24.248 L26.784,31 L24.512,31 L24.512,24.248 Z"/>
  </g>
</svg>
