<?xml version="1.0" encoding="UTF-8"?>
<svg width="150px" height="150px" viewBox="0 0 150 150" version="1.1" xmlns="http://www.w3.org/2000/svg" xmlns:xlink="http://www.w3.org/1999/xlink">
    <!-- Generator: Sketch 46 (44423) - http://www.bohemiancoding.com/sketch -->
    <title>Group</title>
    <desc>Created with Sketch.</desc>
    <defs>
        <path d="M5,124 L145,124 L145,39.6430476 C145,37.6320853 143.343081,36 141.298216,36 L8.70178426,36 C6.65691863,36 5,37.6320853 5,39.6430476 L5,124 Z" id="path-1"></path>
        <path d="M15,117 L15,45.2422431 C15,44.0060197 15.980847,43 17.1861375,43 L132.813863,43 C134.019153,43 135,44.0060197 135,45.2422431 L135,117 L15,117 Z" id="path-2"></path>
        <rect id="path-3" x="0" y="122" width="150" height="8" rx="2"></rect>
        <path d="M28.4498347,23 L28.4439864,23 L28.4439864,23 L14.0264457,22.9591303 C12.9064947,22.9563117 11.9970829,22.1656936 12.000007,21.1960942 L12.0277865,10.7531709 C12.0292486,9.78639018 12.9401225,9 14.0571493,9 L14.0615355,9 L28.4805383,9.04086974 C29.006886,9.04227904 29.5069163,9.21844172 29.8855942,9.53412523 L35.3844656,14.7457218 C35.7792264,15.074089 35.9985379,15.5236561 36,16.0056372 C36,16.4876183 35.7792264,16.9357761 35.3800794,17.2697806 L29.8665872,22.499698 C29.4805989,22.8252466 28.9791065,23 28.4498347,23 Z" id="path-4"></path>
        <path d="M120.132586,67.4995819 L114.620269,62.2700669 C114.22098,61.9349916 114,61.485786 114,61.0043896 C114.001524,60.5229933 114.22098,60.0723244 114.614173,59.7445652 L120.114298,54.5326087 C120.493775,54.2165552 120.992124,54.0409699 121.519429,54.0409699 L135.938017,54 L135.942589,54 C137.059683,54 137.969512,54.7842809 137.97256,55.7529264 L137.999992,66.194398 C138.00304,67.1645067 137.093211,67.9561037 135.973069,67.9575669 L121.556005,68 L121.556005,68 L121.551433,68 C121.02108,68 120.519683,67.8244147 120.132586,67.4995819 Z" id="path-5"></path>
        <path d="M28.4498414,105 L28.4438964,105 L28.4438964,105 L14.0257688,104.958453 C13.4877457,104.958453 12.9794476,104.775072 12.5974809,104.446991 C12.2110555,104.113181 11.9985215,103.669054 12.0000077,103.196275 L12.0267603,92.7535817 C12.0297328,91.7851003 12.9393188,91 14.0569801,91 L14.0614388,91 L28.4810527,91.0401146 C29.0071858,91.0415473 29.5065664,91.2163324 29.8855606,91.5329513 L35.3861781,96.7449857 C35.7785485,97.0730659 35.9985137,97.5229226 36,98.0057307 C36,98.487106 35.7800348,98.9355301 35.380233,99.2707736 L29.8677255,104.5 C29.4798138,104.825215 28.978947,105 28.4498414,105 Z" id="path-6"></path>
    </defs>
    <g id="Archives" stroke="none" stroke-width="1" fill="none" fill-rule="evenodd">
        <g id="Artboard-Copy-2">
            <g id="Group-2" transform="translate(0.000000, 10.000000)">
                <g id="Fill-1">
                    <use fill="#FFFFFF" fill-rule="evenodd" xlink:href="#path-1"></use>
                    <path stroke="#D7E5FB" stroke-width="2" d="M6,123 L144,123 L144,39.6430476 C144,38.1874156 142.793773,37 141.298216,37 L8.70178426,37 C7.20622696,37 6,38.1874156 6,39.6430476 L6,123 Z"></path>
                </g>
                <g id="Fill-5">
                    <use fill="#FFFFFF" fill-rule="evenodd" xlink:href="#path-2"></use>
                    <path stroke="#D7E5FB" stroke-width="1" d="M15.5,116.5 L134.5,116.5 L134.5,45.2422431 C134.5,44.2793662 133.740135,43.5 132.813863,43.5 L17.1861375,43.5 C16.2598648,43.5 15.5,44.2793662 15.5,45.2422431 L15.5,116.5 Z"></path>
                </g>
                <g id="Rectangle">
                    <use fill="#FFFFFF" fill-rule="evenodd" xlink:href="#path-3"></use>
                    <rect stroke="#D7E5FB" stroke-width="2" x="1" y="123" width="148" height="6" rx="2"></rect>
                </g>
                <path d="M85.1116988,125.656465 L66.1154724,125.656465 C65.1659441,125.656465 64.3083969,125.136544 63.9305668,124.333147 L63.6135856,123.656465 L87.6135856,123.656465 L87.2966045,124.333147 C86.9187743,125.136544 86.0612271,125.656465 85.1116988,125.656465" id="Fill-13" fill="#D7E5FB"></path>
                <g id="Group" transform="translate(25.000000, 0.000000)">
                    <path d="M0,116 L0,2 C0,0.8954305 0.8954305,-1.91384796e-17 2,-2.22044605e-16 L98,-2.22044605e-16 C99.1045695,7.42348761e-15 100,0.8954305 100,2 L100,116 L98,116 L98,2 L2,2 L2,116 L0,116 Z M2,116 L0,116 L0,2 C0,0.8954305 0.8954305,-1.91384796e-17 2,-2.22044605e-16 L98,-2.22044605e-16 C99.1045695,7.42348761e-15 100,0.8954305 100,2 L100,116 L98,116 L98,2 L2,2 L2,116 Z" id="Fill-18" fill="#777777" fill-rule="nonzero"></path>
                    <rect id="Rectangle-2" fill="#FFFFFF" x="2" y="2" width="96" height="114"></rect>
                    <polygon id="Fill-28" fill="#777777" points="50 18 87 18 87 14 50 14"></polygon>
                    <polygon id="Fill-28-Copy-9" fill="#777777" points="13 18 48 18 48 16 13 16"></polygon>
                    <polygon id="Fill-28-Copy-2" fill="#777777" points="13 36 87 36 87 32 13 32"></polygon>
                    <polygon id="Fill-28-Copy-4" fill="#777777" points="13 54 87 54 87 50 13 50"></polygon>
                    <polygon id="Fill-28-Copy-6" fill="#777777" points="13 72 87 72 87 68 13 68"></polygon>
                    <polygon id="Fill-28-Copy" fill="#777777" points="13 27 87 27 87 23 13 23"></polygon>
                    <polygon id="Fill-28-Copy-3" fill="#777777" points="13 45 87 45 87 41 13 41"></polygon>
                    <polygon id="Fill-28-Copy-5" fill="#777777" points="13 63 50 63 50 59 13 59"></polygon>
                    <polygon id="Fill-28-Copy-10" fill="#777777" points="52 63 87 63 87 61 52 61"></polygon>
                    <polygon id="Fill-28-Copy-7" fill="#777777" points="13 81 43 81 43 77 13 77"></polygon>
                    <polygon id="Fill-28-Copy-8" fill="#777777" points="13 100 50 100 50 98 13 98"></polygon>
                </g>
                <polygon id="Fill-16" fill="#E3E3E3" style="mix-blend-mode: multiply;" opacity="0.9" points="23 116 25 116 25 36 23 36"></polygon>
                <g id="Stroke-32">
                    <use fill="#FFDDD7" fill-rule="evenodd" xlink:href="#path-4"></use>
                    <path stroke="#FCA192" stroke-width="2" d="M28.4498347,22 C28.7496806,22 29.0213552,21.9043942 29.1783844,21.7741797 L34.7383293,16.5028667 C34.9162556,16.3539788 35,16.1834106 35.0000046,16.0086707 C34.9994561,15.8278675 34.9158388,15.6566475 34.6965722,15.4715334 L29.2452679,10.3022282 C29.0481894,10.1379344 28.7742025,10.0416596 28.4777039,10.0408657 L14.0615355,10 L14.0571493,10 C13.4620217,10 13.0283602,10.374565 13.027783,10.755831 L13.0000025,21.19911 C12.9988502,21.5811951 13.4316249,21.9576301 14.0292804,21.9591343 L28.4439864,22 L28.4498347,22 Z"></path>
                </g>
                <path d="M22.9757429,107 L15.1764755,106.959128 C14.5255765,106.957669 13.9979844,106.21906 14.0000058,105.311125 L14.0181986,94.6407067 C14.0192093,93.7327724 14.5488229,92.9985425 15.1997219,93.0000022 L23,93.0408738 L22.9757429,107 Z" id="Fill-78" fill="#E3E3E3" style="mix-blend-mode: multiply;" opacity="0.9"></path>
                <path d="M125.036612,56 L134.202941,56.039416 C135.197573,56.0423357 136.003042,56.7810214 135.999991,57.68905 L135.972532,68.3605763 C135.971007,69.2686049 135.162486,70.002911 134.167854,69.9999913 L125,69.9605753 L125.036612,56 Z" id="Fill-80" fill="#E3E3E3" style="mix-blend-mode: multiply;" opacity="0.9"></path>
                <g id="Stroke-118">
                    <use fill="#A9F3F5" fill-rule="evenodd" xlink:href="#path-5"></use>
                    <path stroke="#55DCE1" stroke-width="2" d="M120.795039,66.7496346 C120.995912,66.9100066 121.260814,67 121.551433,67 L121.553061,67.0000043 L135.971763,66.9575677 C136.568264,66.9567885 137.001199,66.5801659 136.999996,66.1970252 L136.972565,55.7560731 C136.971361,55.3735088 136.538586,55 135.942589,55 L135.940858,54.999996 L121.519429,55.0409699 C121.223783,55.0409699 120.95218,55.1361745 120.802134,55.258475 L115.254471,60.5126917 C115.084706,60.6542056 115.000567,60.8268464 115,61.0043896 C115,61.1820482 115.0844,61.3540973 115.308521,61.5445954 L120.795039,66.7496346 Z"></path>
                </g>
                <g id="Stroke-84">
                    <use fill="#FFE490" fill-rule="evenodd" xlink:href="#path-6"></use>
                    <path stroke="#FFC820" stroke-width="2" d="M28.4498414,104 C28.7495909,104 29.0217819,103.904276 29.1795059,103.774498 L34.7377041,98.5045123 C34.9162338,98.3548107 35,98.1838864 35.0000047,98.008809 C34.9994464,97.8274239 34.9152879,97.654764 34.6983692,97.4708775 L29.2444321,92.3003848 C29.0483005,92.1365328 28.7756383,92.0409205 28.4782708,92.0401107 L14.0614388,92 L14.0569801,92 C13.4608696,92 13.0279304,92.3738665 13.026757,92.7561435 L13.0000028,103.199419 C12.9994561,103.373315 13.0804242,103.542731 13.2490507,103.688403 C13.4478134,103.859125 13.7246492,103.958453 14.0286504,103.958457 L28.4438964,104 L28.4498414,104 Z"></path>
                </g>
            </g>
        </g>
    </g>
</svg>