<?xml version="1.0" encoding="UTF-8"?>
<svg width="150px" height="150px" viewBox="0 0 150 150" version="1.1" xmlns="http://www.w3.org/2000/svg" xmlns:xlink="http://www.w3.org/1999/xlink">
    <!-- Generator: Sketch 46 (44423) - http://www.bohemiancoding.com/sketch -->
    <title>Group</title>
    <desc>Created with Sketch.</desc>
    <defs>
        <path d="M16.6709526,59 L144.606156,59 L144.606156,59 C145.710725,59 146.606156,59.8954305 146.606156,61 C146.606156,61.1192748 146.595486,61.2383105 146.574274,61.355684 L132.297166,140.355684 L132.297166,140.355684 C132.125126,141.307635 131.29642,142 130.329047,142 L2.39384413,142 L2.39384413,142 C1.28927463,142 0.393844133,141.104569 0.393844133,140 C0.393844133,139.880725 0.404513952,139.761689 0.425726023,139.644316 L14.7028345,60.644316 L14.7028345,60.644316 C14.8748739,59.6923646 15.7035804,59 16.6709526,59 Z" id="path-1"></path>
        <path d="M38.2769072,42.3516066 C37.5675501,40.3522408 35.5572322,39 33.2915458,39 L13.7842265,39 C11.51854,39 9.50822209,40.3522408 8.79886503,42.3516066 L6.88360095,47.7605698 C6.64809441,48.4274644 5.97704263,48.8782113 5.22228671,48.8782113 L2,48.8782113 L2,48.8782113 C0.8954305,48.8782113 7.85833503e-15,49.7736418 7.99360578e-15,50.8782113 L0,69 L132,69 L132,50.8782113 L132,50.8782113 C132,49.7736418 131.104569,48.8782113 130,48.8782113 L41.8534855,48.8782113 C41.0987296,48.8782113 40.4276778,48.4274644 40.1921713,47.7605698 L38.2769072,42.3516066 Z" id="path-2"></path>
        <path d="M0,67 L132,67 L132,140 L132,140 C132,141.104569 131.104569,142 130,142 L2,142 L2,142 C0.8954305,142 1.3527075e-16,141.104569 0,140 L0,67 Z" id="path-3"></path>
    </defs>
    <g id="Archives" stroke="none" stroke-width="1" fill="none" fill-rule="evenodd">
        <g id="Artboard-Copy-3">
            <g id="Group-2" transform="translate(0.000000, -2.000000)">
                <g id="Rectangle-7-Copy">
                    <use fill="#FFFFFF" fill-rule="evenodd" xlink:href="#path-1"></use>
                    <path stroke="#D7E5FB" stroke-width="2" d="M16.6709526,60 C16.1872665,60 15.7729132,60.3461823 15.6868935,60.822158 L1.40978508,139.822158 C1.39917904,139.880845 1.39384413,139.940363 1.39384413,140 C1.39384413,140.552285 1.84155938,141 2.39384413,141 L130.329047,141 C130.812734,141 131.227087,140.653818 131.313106,140.177842 L145.590215,61.177842 C145.600821,61.1191553 145.606156,61.0596374 145.606156,61 C145.606156,60.4477153 145.158441,60 144.606156,60 L16.6709526,60 Z"></path>
                </g>
                <g id="Group" transform="translate(81.576784, 75.774562) rotate(10.000000) translate(-81.576784, -75.774562) translate(21.576784, 9.774562)">
                    <path d="M97.2903313,2.58792686 L2.74878703,19.2581519 L22.1973829,129.55662 L116.738927,112.886395 L97.2903313,2.58792686 Z M119.055839,114.508714 L20.5750638,131.873532 L0.779171527,19.6054483 C0.587365046,18.5176597 1.31370207,17.4803429 2.40149068,17.2885364 L96.943035,0.618311357 C98.0308236,0.426504877 99.0681403,1.1528419 99.2599468,2.24063051 L119.055839,114.508714 Z" id="Fill-18" fill="#777777" fill-rule="nonzero"></path>
                    <polygon id="Fill-18" fill="#FFFFFF" fill-rule="nonzero" points="97.2903313 2.58792686 2.74878703 19.2581519 22.1973829 129.55662 116.738927 112.886395"></polygon>
                    <path d="M105.808552,6.56575803 L10.1738615,14.9327093 L19.9353046,126.506516 L115.569996,118.139564 L105.808552,6.56575803 Z M117.736697,119.957642 L18.1172267,128.673216 L8.18147206,15.1070208 C8.08520249,14.0066545 8.8991837,13.0365895 9.99954998,12.9403199 L105.634241,4.57336864 C106.734607,4.47709906 107.704672,5.29108027 107.800942,6.39144655 L117.736697,119.957642 Z" id="Fill-18" fill="#777777" fill-rule="nonzero"></path>
                    <polygon id="Fill-18" fill="#FFFFFF" fill-rule="nonzero" points="105.808552 6.56575803 10.1738615 14.9327093 19.9353046 126.506516 115.569996 118.139564"></polygon>
                    <path d="M114,123 L114,11 L18,11 L18,123 L114,123 Z M101.958695,125 L16,125 L16,11 C16,9.8954305 16.8954305,9 18,9 L114,9 C115.104569,9 116,9.8954305 116,11 L116.176675,122.492987 L101.958695,125 Z" id="Fill-18" fill="#777777" fill-rule="nonzero"></path>
                    <polygon id="Fill-18" fill="#FFFFFF" fill-rule="nonzero" points="114 123 114 11 18 11 18 123"></polygon>
                    <polygon id="Fill-28" fill="#777777" points="66 27 103 27 103 23 66 23"></polygon>
                    <polygon id="Fill-28-Copy-9" fill="#777777" points="29 27 64 27 64 25 29 25"></polygon>
                    <polygon id="Fill-28-Copy-2" fill="#777777" points="29 45 103 45 103 41 29 41"></polygon>
                    <polygon id="Fill-28-Copy-4" fill="#777777" points="29 63 103 63 103 59 29 59"></polygon>
                    <polygon id="Fill-28-Copy-6" fill="#777777" points="29 81 103 81 103 77 29 77"></polygon>
                    <polygon id="Fill-28-Copy" fill="#777777" points="29 36 103 36 103 32 29 32"></polygon>
                    <polygon id="Fill-28-Copy-3" fill="#777777" points="29 54 103 54 103 50 29 50"></polygon>
                    <polygon id="Fill-28-Copy-5" fill="#777777" points="29 72 66 72 66 68 29 68"></polygon>
                    <polygon id="Fill-28-Copy-10" fill="#777777" points="68 72 103 72 103 70 68 70"></polygon>
                    <polygon id="Fill-28-Copy-7" fill="#777777" points="29 90 59 90 59 86 29 86"></polygon>
                    <polygon id="Fill-28-Copy-8" fill="#777777" points="29 109 66 109 66 107 29 107"></polygon>
                </g>
                <path d="M39.4035774,40.3534463 C38.6910951,38.352983 36.6719202,37 34.3962518,37 L31.4016113,37 L31.4016113,142 L129.88598,141.84835 L132.04248,140.018066 L133.998538,49.0764552 L133.998538,49.0764552 C134.02229,47.9721411 133.146322,47.0576624 132.042008,47.0339097 C132.027674,47.0336014 132.013337,47.0334473 131.999,47.0334473 L42.9959131,47.0334473 C42.237832,47.0334473 41.5638237,46.5824529 41.3272796,45.9151923 L39.4035774,40.3534463 Z" id="Fill-35" fill="#DCDCDC" style="mix-blend-mode: multiply;" opacity="0.9"></path>
                <g id="Fill-37">
                    <use fill="#FFFFFF" fill-rule="evenodd" xlink:href="#path-2"></use>
                    <path stroke="#D7E5FB" stroke-width="2" d="M37.3343676,42.6857011 C36.7695434,41.0941131 35.1422444,40 33.2915458,40 L13.7842265,40 C11.9334211,40 10.306041,41.0942393 9.74151476,42.6853902 L7.8265327,48.0935559 C7.44671745,49.169096 6.392185,49.8782113 5.22228671,49.8782113 L2,49.8782113 C1.44771525,49.8782113 1,50.3259266 1,50.8782113 L1,68 L131,68 L131,50.8782113 C131,50.3259266 130.552285,49.8782113 130,49.8782113 L41.8534855,49.8782113 C40.6835872,49.8782113 39.6290548,49.169096 39.2495215,48.0943534 L37.3343676,42.6857011 Z"></path>
                </g>
                <g id="Rectangle-7">
                    <use fill="#FFFFFF" fill-rule="evenodd" xlink:href="#path-3"></use>
                    <path stroke="#D7E5FB" stroke-width="2" d="M1,68 L1,140 C1,140.552285 1.44771525,141 2,141 L130,141 C130.552285,141 131,140.552285 131,140 L131,68 L1,68 Z"></path>
                </g>
                <rect id="Rectangle-9" fill="#D7E5FB" x="6" y="62" width="120" height="1"></rect>
                <rect id="Rectangle-9-Copy" fill="#D7E5FB" x="6" y="59" width="120" height="1"></rect>
            </g>
        </g>
    </g>
</svg>