<?xml version="1.0" encoding="UTF-8"?>
<svg width="500px" height="370px" viewBox="0 0 500 370" version="1.1" xmlns="http://www.w3.org/2000/svg" xmlns:xlink="http://www.w3.org/1999/xlink">
    <!-- Generator: Sketch 48.2 (47327) - http://www.bohemiancoding.com/sketch -->
    <title>Group 3</title>
    <desc>Created with Sketch.</desc>
    <defs>
        <path d="M87.8851271,79.4703071 L39.4136629,79.4703071 C31.654209,79.4703071 25.3640812,73.1970884 25.3640812,65.4584936 L25.3640812,59.9021626 C25.3640812,58.3546242 26.6220162,57.0996194 28.1737259,57.0996194 L73.6010689,57.0996194 L20.9149112,57.0996194 C13.1554573,57.0996194 6.86532947,50.8264007 6.86532947,43.0878059 L6.86532947,37.5319263 C6.86532947,35.9839365 8.1232645,34.7293831 9.67497422,34.7293831 L80.3185053,34.7293831 C104.910932,35.9455641 124.98131,54.7859863 127.685033,79.1944769 L133.582254,126.830038 C133.715788,128.036287 133.757432,129.261046 133.559168,130.457815 C132.396744,137.47591 125.759881,142.652128 118.169268,141.477028 C112.590265,140.612971 108.057353,136.176213 107.103152,130.626654 C106.374826,126.389883 107.647246,122.442035 110.130072,119.560039 C111.983251,117.408021 111.975104,113.619983 110.280807,111.342014 C104.505803,103.57543 96.268343,101.840995 65.9516108,101.840995 L57.9124146,101.840995 C50.1529607,101.840995 43.8628329,95.5673247 43.8628329,87.8287299 L43.8628329,82.2723989 C43.8628329,80.7248605 45.1207679,79.4703071 46.6729303,79.4703071 L87.8851271,79.4703071 Z" id="path-1"></path>
    </defs>
    <g id="Meerkat_3.1_Post-Sending_VD" stroke="none" stroke-width="1" fill="none" fill-rule="evenodd" transform="translate(-558.000000, -189.000000)">
        <g id="Group-3" transform="translate(550.000000, 189.000000)">
            <g id="Group-12" transform="translate(9.369750, 35.775410)">
                <path d="M345.969086,295.30501 L354.893363,295.30501 C355.853844,291.645811 358.704448,288.75282 362.353193,287.720428 C362.344381,287.599465 362.332181,287.47884 362.332181,287.355182 C362.332181,274.487672 372.824611,264.056597 385.767389,264.056597 C397.600562,264.056597 407.37958,272.777014 408.97078,284.105705 C409.04873,284.104357 409.124308,284.094249 409.202597,284.094249 C415.870047,284.094249 421.380785,288.95566 422.382275,295.30501 L423.82842,295.30501 C426.257754,295.30501 428.227521,297.263322 428.227521,299.678528 C428.227521,302.094071 426.257754,304.052383 423.82842,304.052383 L345.969086,304.052383 C343.539413,304.052383 341.569985,302.094071 341.569985,299.678528 C341.569985,297.263322 343.539413,295.30501 345.969086,295.30501" id="Fill-1" stroke="#FFD72E" stroke-width="2"></path>
                <path d="M475.090265,96.1128365 L470.216522,96.1128365 C469.462434,86.5138334 461.371027,78.953066 451.478624,78.953066 C450.229282,78.953066 449.009445,79.079855 447.827706,79.3101453 C442.024332,67.6510974 429.902908,59.6256832 415.882259,59.6256832 C396.222948,59.6256832 380.286268,75.3985368 380.286268,94.8552962 C380.286268,95.2851961 380.332954,95.7021583 380.401304,96.1128365 L367.046224,96.1128365 C363.325835,96.1128365 360.309485,99.0981088 360.309485,102.780536 C360.309485,106.462593 363.325835,109.447866 367.046224,109.447866 L413.902733,109.447866 L413.917299,109.447866 L475.090265,109.447866 C478.810654,109.447866 481.827004,106.462593 481.827004,102.780536 C481.827004,99.0981088 478.810654,96.1128365 475.090265,96.1128365" id="Fill-3" stroke="#FFD72E" stroke-width="2"></path>
                <g id="Group-6" transform="translate(59.625683, 40.034387)">
                    <path d="M11.7496176,0.00410574604 C8.37002661,0.0914994831 5.39563114,1.58129876 3.27368639,3.88080981 C1.45593445,5.85098137 0.37185883,8.34082307 0.0768480862,10.9476785 C0.0315301708,11.3479888 0.00664974668,11.7491788 0.0010220317,12.1503689 C-0.0179344819,13.5636253 0.227315413,14.9598722 0.694711953,16.2810426 C1.07502701,17.3573346 1.6247659,18.3635357 2.27669225,19.2949535 L9.29859958,28.9519614 C9.38094194,29.0648695 9.51334134,29.132321 9.65403421,29.132321 L14.4820213,29.132321 C14.6227142,29.132321 14.7551136,29.0648695 14.8374559,28.9519614 L21.859067,19.2949535 C22.5112896,18.3635357 23.0607323,17.3573346 23.4413435,16.2810426 C23.9084439,14.9598722 24.15399,13.5636253 24.1347373,12.1503689 C24.1294057,11.7491788 24.1042291,11.3479888 24.0589112,10.9476785 C23.7641967,8.34082307 22.680121,5.85098137 20.8620729,3.88080981 C18.7404243,1.58129876 15.7657327,0.0914994831 12.3864379,0.00410574604 C12.2803999,0.00146633787 12.1743619,0 12.0680277,0 C11.9616935,0 11.8553594,0.00146633787 11.7496176,0.00410574604 Z" id="Fill-5" fill="#F6B610"></path>
                    <path d="M14.6640635,38.6172627 L9.47172571,38.6172627 C8.81060532,38.6172627 8.27512773,38.0635803 8.27512773,37.3806744 L8.27512773,34.4338844 C8.27512773,33.7509785 8.81060532,33.197296 9.47172571,33.197296 L14.6640635,33.197296 C15.3248847,33.197296 15.8606615,33.7509785 15.8606615,34.4338844 L15.8606615,37.3806744 C15.8606615,38.0635803 15.3248847,38.6172627 14.6640635,38.6172627" id="Fill-7" fill="#F6B610"></path>
                    <path d="M6.20634579,24.3898501 L9.65431568,33.197296" id="Stroke-11" stroke="#F6B610"></path>
                    <path d="M17.9294434,24.3898501 L14.4814735,33.197296" id="Stroke-15" stroke="#F6B610"></path>
                    <path d="M7.58553375,13.3559919 C7.58553375,19.3764819 9.18415753,25.76209 10.5468753,29.132321 L13.5889139,29.132321 C14.9516317,25.76209 16.5502555,19.3764819 16.5502555,13.3559919 C16.5502555,4.64594491 13.2039836,0 12.0680419,0 C10.9318056,0 7.58553375,4.64594491 7.58553375,13.3559919" id="Fill-21" fill="#F3F3F4"></path>
                    <path d="M7.58553375,13.3559919 C7.58553375,19.3764819 9.18415753,25.76209 10.5468753,29.132321 L13.5889139,29.132321 C14.9516317,25.76209 16.5502555,19.3764819 16.5502555,13.3559919 C16.5502555,4.64594491 13.2039836,0 12.0680419,0 C10.9318056,0 7.58553375,4.64594491 7.58553375,13.3559919" id="Fill-23" fill="#F6B610" style="mix-blend-mode: multiply;"></path>
                </g>
                <g id="Group-8" transform="translate(438.674669, 164.396526)">
                    <path d="M11.1586082,35.6539314 C9.32655498,35.6539314 7.84118417,34.1469911 7.84118417,32.288334 L7.84118417,31.1766437 C7.84118417,30.6457505 8.26557583,30.2151961 8.78913175,30.2151961 L13.5280847,30.2151961 C14.0516407,30.2151961 14.4760323,30.6457505 14.4760323,31.1766437 L14.4760323,32.288334 C14.4760323,34.1469911 12.9906615,35.6539314 11.1586082,35.6539314" id="Fill-25" fill="#F6B610"></path>
                    <path d="M3.61900808,21.1506373 L9.04752019,30.2151961" id="Stroke-27" stroke="#F6B610"></path>
                    <path d="M19.3013764,21.1506373 L13.8728643,30.2151961" id="Stroke-29" stroke="#F6B610"></path>
                    <path d="M16.1308729,4.18640459 C17.6618272,4.18640459 19.7419761,4.53656026 21.7140485,5.47878305 C19.3524341,1.26826594 14.4472637,0 11.5328264,0 C7.58894085,0 0,2.32030551 0,11.1122007 C0,18.2909162 6.96354847,24.980829 10.1109853,27.1936765 C7.30799375,24.0640292 4.5980465,19.7767189 4.5980465,15.2986053 C4.5980465,6.50697219 12.1869873,4.18640459 16.1308729,4.18640459" id="Fill-31" fill="#F6B610"></path>
                    <path d="M11.5432843,27.6426263 C9.95270097,25.1572191 8.7858101,22.3169394 8.7858101,19.3943064 C8.7858101,10.6796641 16.318636,8.38000657 20.2329683,8.38000657 C20.8521716,8.38000657 21.5614128,8.43742008 22.3172165,8.56887362 C22.0900638,7.40839346 21.7072742,6.39417485 21.2110369,5.51114999 C19.2533562,4.57720637 17.1886591,4.23012746 15.6693343,4.23012746 C11.7547447,4.23012746 4.22217609,6.53004481 4.22217609,15.244687 C4.22217609,19.6834522 6.9119933,23.9330905 9.69416364,27.0352382 C10.3959446,27.5283188 10.9073597,27.7979804 11.1051858,27.7979804 C11.1931656,27.7979804 11.343143,27.7444638 11.5432843,27.6426263" id="Fill-33" fill="#E8ECFF"></path>
                    <path d="M11.5432843,27.6426263 C9.95270097,25.1572191 8.7858101,22.3169394 8.7858101,19.3943064 C8.7858101,10.6796641 16.318636,8.38000657 20.2329683,8.38000657 C20.8521716,8.38000657 21.5614128,8.43742008 22.3172165,8.56887362 C22.0900638,7.40839346 21.7072742,6.39417485 21.2110369,5.51114999 C19.2533562,4.57720637 17.1886591,4.23012746 15.6693343,4.23012746 C11.7547447,4.23012746 4.22217609,6.53004481 4.22217609,15.244687 C4.22217609,19.6834522 6.9119933,23.9330905 9.69416364,27.0352382 C10.3959446,27.5283188 10.9073597,27.7979804 11.1051858,27.7979804 C11.1931656,27.7979804 11.343143,27.7444638 11.5432843,27.6426263" id="Fill-35" fill="#EAAD0F"></path>
                    <path d="M22.7943948,12.868861 C22.8760548,12.3120475 22.9203845,11.7505397 22.9203845,11.1859022 C22.9203845,10.2715285 22.8363914,9.42835392 22.6834409,8.64985836 C21.9217996,8.51789228 21.2068211,8.46025492 20.5830944,8.46025492 C16.6382691,8.46025492 9.04752019,10.768879 9.04752019,19.5175 C9.04752019,22.4515285 10.2231647,25.3028826 11.8260335,27.7979804 C12.2988837,27.5583029 13.0527479,27.0489556 13.9512669,26.3205341 C13.7560607,25.4538873 13.646403,24.5726355 13.646403,23.6832989 C13.646403,16.4908866 18.7772422,13.6515294 22.7943948,12.868861" id="Fill-37" fill="#EAAD0F"></path>
                    <path d="M22.9203845,13.2946863 C18.9473519,14.0682206 13.8728643,16.8744413 13.8728643,23.982915 C13.8728643,24.8618727 13.9813176,25.7328399 14.1743799,26.5893726 C17.2674791,24.0826677 22.0894218,18.9499156 22.9203845,13.2946863" id="Fill-43" fill="#E8ECFF"></path>
                    <path d="M22.9203845,13.2946863 C18.9473519,14.0682206 13.8728643,16.8744413 13.8728643,23.982915 C13.8728643,24.8618727 13.9813176,25.7328399 14.1743799,26.5893726 C17.2674791,24.0826677 22.0894218,18.9499156 22.9203845,13.2946863" id="Fill-45" fill="#F6B610"></path>
                </g>
                <g id="Group-9" transform="translate(329.644848, 0.000000)">
                    <path d="M18.4019918,44.9918659 L14.0921335,44.9918659 C13.0813405,44.9918659 12.2619341,44.1888132 12.2619341,43.1987659 L12.2619341,40.6174705 C12.2619341,40.0516194 12.7302037,39.592842 13.3077624,39.592842 L19.186363,39.592842 C19.7639216,39.592842 20.2321913,40.0516194 20.2321913,40.6174705 L20.2321913,43.1987659 C20.2321913,44.1888132 19.4127848,44.9918659 18.4019918,44.9918659" id="Fill-51" fill="#F6B610"></path>
                    <path d="M7.35716045,21.5960956 L14.1012242,39.592842" id="Stroke-55" stroke="#F6B610"></path>
                    <path d="M25.7500616,21.5960956 L19.0059978,39.592842" id="Stroke-59" stroke="#F6B610"></path>
                    <path d="M0,13.1905483 C0,23.6269408 15.214955,37.7931673 16.5534783,37.7931673 C17.892267,37.7931673 33.107222,23.6269408 33.107222,13.1905483 C33.107222,2.75441465 17.892267,0 16.5534783,0 C15.214955,0 0,2.75441465 0,13.1905483" id="Fill-61" fill="#F6B610"></path>
                    <path d="M6.01787034,13.7902286 C6.01787034,18.3419972 7.91750602,24.0546793 10.972945,29.7695019 C13.2303089,33.9916233 16.1018622,37.8930589 16.5534779,37.8930589 C17.0052213,37.8930589 19.8767932,33.9917312 22.134245,29.7694995 C25.1896976,24.054725 27.0893517,18.342013 27.0893517,13.7902286 C27.0893517,9.3349828 25.2954342,6.00483678 22.2703263,3.67786726 C20.2425125,2.11803499 17.5898888,1.09989154 16.5534779,1.09989154 C15.5172056,1.09989154 12.8646281,2.11805199 10.8368649,3.67786537 C7.81177868,6.00484812 6.01787034,9.33499202 6.01787034,13.7902286 Z" id="Stroke-63" stroke="#EAAD0F"></path>
                    <path d="M16.2469633,37.7815841 C16.2977088,37.7122697 16.3546419,37.6233095 16.4158775,37.5160524 C16.631295,37.1387384 16.8810771,36.5701551 17.1494019,35.8433092 C17.7036329,34.341992 18.3077453,32.2484343 18.8612169,29.8909687 C20.1419504,24.4357925 20.9583847,18.5130394 20.9583847,13.7902286 C20.9583847,9.18254674 20.1986164,5.78021539 18.9137525,3.52943375 C18.012702,1.95100341 16.9005492,1.09989154 16.2469318,1.09989154 C15.5934569,1.09989154 14.481354,1.95102209 13.5803431,3.52942837 C12.2955009,5.78023697 11.5357407,9.18256822 11.5357407,13.7902286 C11.5357407,18.5130026 12.3521603,24.4357129 13.6328764,29.8909718 C14.1863273,32.2484168 14.7904157,34.341983 15.3446168,35.8433194 C15.6129239,36.5701663 15.862687,37.1387539 16.0780839,37.5160725 C16.1393066,37.6233187 16.1962279,37.7122721 16.2469633,37.7815841 Z" id="Stroke-65" stroke="#EAAD0F"></path>
                    <path d="M16.2471946,18.3695029 C9.87045428,18.3695029 4.11099659,17.3064981 0,15.5971802 C0.257728675,17.039255 0.743904671,18.5246596 1.39495316,20.0126587 C5.36798445,21.7458469 10.5623911,22.7958787 16.2471946,22.7958787 C21.9317342,22.7958787 27.1261409,21.7458469 31.099436,20.0126587 C31.7502207,18.5246596 32.2363967,17.039255 32.4941253,15.5971802 C28.3831287,17.3064981 22.6239349,18.3695029 16.2471946,18.3695029" id="Fill-67" fill="#EAAD0F"></path>
                    <path d="M24.5238682,2.14250459 C20.8118288,0.559613043 19.3159721,0 16.553611,0 C13.7912499,0 12.2953933,0.559613043 8.58335386,2.14250459 C9.99947062,2.64902989 13.0354543,2.99945772 16.553611,2.99945772 C20.0717678,2.99945772 23.1080181,2.64902989 24.5238682,2.14250459" id="Fill-69" fill="#EDEDED"></path>
                    <path d="M24.5238682,2.14250459 C20.8118288,0.559613043 19.3159721,0 16.553611,0 C13.7912499,0 12.2953933,0.559613043 8.58335386,2.14250459 C9.99947062,2.64902989 13.0354543,2.99945772 16.553611,2.99945772 C20.0717678,2.99945772 23.1080181,2.64902989 24.5238682,2.14250459" id="Fill-71" fill="#F6B610"></path>
                </g>
                <g id="Group-7" transform="translate(84.327752, 206.986300)">
                    <path d="M21.0565682,56.9604625 L13.4234279,56.9604625 C12.865442,56.9604625 12.4126916,56.5172759 12.4126916,55.970718 L12.4126916,50.4841728 C12.4126916,49.8409407 12.9451118,49.3194249 13.6017932,49.3194249 L20.8779057,49.3194249 C21.5348843,49.3194249 22.0670073,49.8409407 22.0670073,50.4841728 L22.0670073,55.970718 C22.0670073,56.5172759 21.6145541,56.9604625 21.0565682,56.9604625" id="Fill-73" fill="#F6B610"></path>
                    <path d="M22.7566012,0.8260611 C20.7409712,0.236921588 18.7852142,0 17.2261891,0 C15.6741394,0 13.7291363,0.234995396 11.7230976,0.818356333 C13.6038679,1.36511963 15.5384077,2.21814741 17.2532191,3.47319893 C18.9598925,2.22420116 20.8842597,1.37337473 22.7566012,0.8260611" id="Fill-75" fill="#F6B610"></path>
                    <path d="M17.2533641,30.5641506 C15.4766919,33.0501004 13.5073264,35.2219255 11.7230976,36.9354728 C14.4059802,39.5111725 16.6694717,39.5944678 17.2263347,39.5944678 C17.7849417,39.5944678 20.0618025,39.5013369 22.7566012,36.909347 C20.9796384,35.2001028 19.0213172,33.0374986 17.2533641,30.5641506" id="Fill-77" fill="#F6B610"></path>
                    <path d="M22.7701159,15.9767151 C22.7701159,9.98995956 25.1550942,6.06502404 28.2733531,3.58255819 C26.56004,2.21814037 24.6252605,1.29015752 22.7430866,0.694639787 C20.8705037,1.28717844 18.9464778,2.20830942 17.2398494,3.56051301 C20.3714776,6.04178723 22.7701159,9.97297882 22.7701159,15.9767151" id="Fill-79" fill="#F3F3F4"></path>
                    <path d="M22.7701159,15.9767151 C22.7701159,9.98995956 25.1550942,6.06502404 28.2733531,3.58255819 C26.56004,2.21814037 24.6252605,1.29015752 22.7430866,0.694639787 C20.8705037,1.28717844 18.9464778,2.20830942 17.2398494,3.56051301 C20.3714776,6.04178723 22.7701159,9.97297882 22.7701159,15.9767151" id="Fill-81" fill="#F6B610"></path>
                    <path d="M28.2733531,30.5321387 C25.2366836,26.3397313 22.769971,21.2471787 22.769971,15.9767151 C22.769971,21.2629124 20.2890167,26.3699883 17.2398494,30.5696574 C19.0075584,33.0044367 20.9659312,35.1333179 22.7429409,36.8159087 C24.5292512,35.124846 26.4983779,32.9823491 28.2733531,30.5321387" id="Fill-83" fill="#F3F3F4"></path>
                    <path d="M28.2733531,30.5321387 C25.2366836,26.3397313 22.769971,21.2471787 22.769971,15.9767151 C22.769971,21.2629124 20.2890167,26.3699883 17.2398494,30.5696574 C19.0075584,33.0044367 20.9659312,35.1333179 22.7429409,36.8159087 C24.5292512,35.124846 26.4983779,32.9823491 28.2733531,30.5321387" id="Fill-85" fill="#F6B610"></path>
                    <path d="M22.7566012,16.036926 C22.7566012,21.2974809 25.2290804,26.3798654 28.2734987,30.5641506 C31.3176258,26.3798654 33.7901049,21.2974809 33.7901049,16.036926 C33.7901049,9.9682629 31.3994979,5.98962854 28.2734987,3.47319893 C25.1474996,5.98962854 22.7566012,9.9682629 22.7566012,16.036926" id="Fill-87" fill="#F3F3F4"></path>
                    <path d="M22.7566012,16.036926 C22.7566012,21.2974809 25.2290804,26.3798654 28.2734987,30.5641506 C31.3176258,26.3798654 33.7901049,21.2974809 33.7901049,16.036926 C33.7901049,9.9682629 31.3994979,5.98962854 28.2734987,3.47319893 C25.1474996,5.98962854 22.7566012,9.9682629 22.7566012,16.036926" id="Fill-89" fill="#F3F3F4"></path>
                    <path d="M22.7566012,16.036926 C22.7566012,21.2974809 25.2290804,26.3798654 28.2734987,30.5641506 C31.3176258,26.3798654 33.7901049,21.2974809 33.7901049,16.036926 C33.7901049,9.9682629 31.3994979,5.98962854 28.2734987,3.47319893 C25.1474996,5.98962854 22.7566012,9.9682629 22.7566012,16.036926" id="Fill-91" fill="#F6B610" style="mix-blend-mode: multiply;"></path>
                    <path d="M16.5502555,30.5516699 C13.5086198,26.3571774 11.0335036,21.2563965 11.0335036,15.9767151 C11.0335036,21.2563965 8.5586774,26.3571774 5.51675182,30.5516699 C7.2893722,32.9958381 9.25363505,35.1311612 11.0335036,36.8159087 C12.8133722,35.1311612 14.777925,32.9958381 16.5502555,30.5516699" id="Fill-93" fill="#F3F3F4"></path>
                    <path d="M16.5502555,30.5516699 C13.5086198,26.3571774 11.0335036,21.2563965 11.0335036,15.9767151 C11.0335036,21.2563965 8.5586774,26.3571774 5.51675182,30.5516699 C7.2893722,32.9958381 9.25363505,35.1311612 11.0335036,36.8159087 C12.8133722,35.1311612 14.777925,32.9958381 16.5502555,30.5516699" id="Fill-95" fill="#F6B610"></path>
                    <path d="M11.0335036,15.9767151 C11.0335036,9.97625405 13.4262802,6.04720706 16.5502555,3.56728645 C14.8393898,2.20927013 12.9099183,1.2862597 11.0335036,0.694639787 C9.15708899,1.2862597 7.22761751,2.20927013 5.51675182,3.56728645 C8.64072706,6.04720706 11.0335036,9.97625405 11.0335036,15.9767151" id="Fill-97" fill="#F3F3F4"></path>
                    <path d="M11.0335036,15.9767151 C11.0335036,9.97625405 13.4262802,6.04720706 16.5502555,3.56728645 C14.8393898,2.20927013 12.9099183,1.2862597 11.0335036,0.694639787 C9.15708899,1.2862597 7.22761751,2.20927013 5.51675182,3.56728645 C8.64072706,6.04720706 11.0335036,9.97625405 11.0335036,15.9767151" id="Fill-99" fill="#F6B610"></path>
                    <path d="M17.2398494,3.47319893 C14.1161641,5.98288146 11.7230976,9.95878024 11.7230976,16.0315551 C11.7230976,21.2958921 14.1982138,26.3818486 17.2398494,30.5641506 C20.2814851,26.3818486 22.7566012,21.2958921 22.7566012,16.0315551 C22.7566012,9.95878024 20.3638247,5.98288146 17.2398494,3.47319893" id="Fill-101" fill="#F3F3F4"></path>
                    <path d="M17.2398494,3.47319893 C14.1161641,5.98288146 11.7230976,9.95878024 11.7230976,16.0315551 C11.7230976,21.2958921 14.1982138,26.3818486 17.2398494,30.5641506 C20.2814851,26.3818486 22.7566012,21.2958921 22.7566012,16.0315551 C22.7566012,9.95878024 20.3638247,5.98288146 17.2398494,3.47319893" id="Fill-103" fill="#F3F3F4"></path>
                    <path d="M17.2398494,3.47319893 C14.1161641,5.98288146 11.7230976,9.95878024 11.7230976,16.0315551 C11.7230976,21.2958921 14.1982138,26.3818486 17.2398494,30.5641506 C20.2814851,26.3818486 22.7566012,21.2958921 22.7566012,16.0315551 C22.7566012,9.95878024 20.3638247,5.98288146 17.2398494,3.47319893" id="Fill-105" fill="#F6B610" style="mix-blend-mode: multiply;"></path>
                    <path d="M5.51675182,3.47319893 C2.39277658,5.98288146 0,9.95878024 0,16.0315551 C0,21.2958921 2.47511616,26.3818486 5.51675182,30.5641506 C8.55838748,26.3818486 11.0335036,21.2958921 11.0335036,16.0315551 C11.0335036,9.95878024 8.64043713,5.98288146 5.51675182,3.47319893" id="Fill-107" fill="#F3F3F4"></path>
                    <path d="M5.51675182,3.47319893 C2.39277658,5.98288146 0,9.95878024 0,16.0315551 C0,21.2958921 2.47511616,26.3818486 5.51675182,30.5641506 C8.55838748,26.3818486 11.0335036,21.2958921 11.0335036,16.0315551 C11.0335036,9.95878024 8.64043713,5.98288146 5.51675182,3.47319893" id="Fill-109" fill="#F3F3F4"></path>
                    <path d="M5.51675182,3.47319893 C2.39277658,5.98288146 0,9.95878024 0,16.0315551 C0,21.2958921 2.47511616,26.3818486 5.51675182,30.5641506 C8.55838748,26.3818486 11.0335036,21.2958921 11.0335036,16.0315551 C11.0335036,9.95878024 8.64043713,5.98288146 5.51675182,3.47319893" id="Fill-111" fill="#F6B610" style="mix-blend-mode: multiply;"></path>
                    <path d="M6.20634579,30.5641506 L13.7918795,49.3194249" id="Stroke-113" stroke="#F6B610"></path>
                    <path d="M28.2733531,30.5641506 L20.6878193,49.3194249" id="Stroke-115" stroke="#F6B610"></path>
                    <path d="M5.51675182,30.6081983 C5.51675182,30.6081983 11.2416754,31.9534302 16.9091223,31.9534302 C22.5765691,31.9534302 28.2733531,30.5641506 28.2733531,30.5641506" id="Stroke-117" stroke="#F6B610" stroke-linejoin="round"></path>
                </g>
                <g id="Group" transform="translate(126.065730, 46.848751)">
                    <path d="M85.1995802,64.2717261 L54.473792,57.2470963 C46.9321595,55.5227913 42.2193162,48.0272416 43.948096,40.5046793 L45.189387,35.1035075 C45.5351429,33.5993552 47.0382334,32.6588661 48.5467405,33.0041773 L76.313291,39.3521412 L41.4912426,31.3910742 C33.9491587,29.6667691 29.2367668,22.1707692 30.9655466,14.6482069 L32.2063862,9.24748532 C32.5521421,7.74288282 34.0552327,6.80284392 35.5637397,7.14770493 L104.22654,22.8456343 C127.858463,29.4925377 143.157035,52.2668711 140.332309,76.5944296 L135.423116,124.210011 C135.283188,125.412073 135.050277,126.611433 134.590322,127.731105 C131.892433,134.29472 124.28535,137.85138 117.17027,135.02226 C111.940599,132.943189 108.525469,127.622605 108.837823,122.016137 C109.076151,117.735538 111.194921,114.181129 114.252108,111.930978 C116.534278,110.251244 117.372488,106.567174 116.234563,103.975764 C112.35677,95.1435402 104.7375,91.6269483 75.2706066,84.8900028 L67.4567928,83.1035687 C59.9147089,81.3792637 55.202317,73.8832638 56.9310968,66.3611517 L58.1723877,60.9599799 C58.5181437,59.4553774 60.0212342,58.5153385 61.5292899,58.8601995 L85.1995802,64.2717261 Z" id="Fill-119" fill="#2C43A6" transform="translate(85.637791, 71.539571) rotate(-7.000000) translate(-85.637791, -71.539571) "></path>
                    <polygon id="Fill-121" fill="#4662DB" points="80.7109871 227.982755 44.8777725 122.764019 191.428055 72.8519644 227.261269 178.070248"></polygon>
                    <path d="M193.456843,178.118 L164.583801,93.5910093 C163.993507,91.8625291 164.65878,89.9550842 166.197452,88.9646628 L191.231995,72.8519644 L227.261269,178.329585 L197.567087,180.800655 C195.74213,180.952888 194.047137,179.84648 193.456843,178.118" id="Fill-123" fill="#738BF5"></path>
                    <path d="M63.0443033,126.817017 L91.8362289,212.034656 C92.3155062,213.452474 91.9586166,215.021123 90.914748,216.087301 L80.2924798,226.934574 L44.8777725,122.116472 L59.8599902,124.173636 C61.3322157,124.375795 62.565026,125.399199 63.0443033,126.817017" id="Fill-125" fill="#738BF5"></path>
                    <path d="M179.044942,135.742825 L77.371384,170.332799" id="Stroke-127" stroke="#738BF5"></path>
                    <path d="M191.63032,125.261015 C190.959003,125.261015 190.27586,125.367054 189.605453,125.589781 L160.242605,135.345395 C156.959246,136.435957 155.203633,139.916619 156.32204,143.119981 C157.211672,145.66803 159.652246,147.272816 162.266562,147.272816 C162.93788,147.272816 163.621022,147.166777 164.292339,146.94405 L193.654732,137.189324 C196.938092,136.098318 198.69325,132.617213 197.575297,129.414294 C196.685211,126.865802 194.244636,125.261015 191.63032,125.261015 M191.63032,125.261015 L191.63032,125.704694 C194.124109,125.704694 196.340001,127.253134 197.144581,129.557602 C197.64625,130.994235 197.544369,132.535576 196.857588,133.898114 C196.170352,135.260208 194.980993,136.279782 193.50828,136.768717 L164.145432,146.52433 C163.53597,146.726648 162.903768,146.829137 162.266562,146.829137 C159.773229,146.829137 157.556882,145.281142 156.752302,142.976673 C156.251088,141.539597 156.352968,139.998256 157.039749,138.636162 C157.72653,137.274067 158.915889,136.254049 160.389058,135.765115 L189.751906,126.009502 C190.361367,125.807628 190.993569,125.704694 191.63032,125.704694 L191.63032,125.261015" id="Fill-129" fill="#2C43A6"></path>
                    <path d="M193.650054,136.453658 C190.363017,137.573045 186.79054,135.815671 185.671596,132.529096 C184.551758,129.241626 186.309139,125.669613 189.596176,124.550226 C192.883213,123.43084 196.45569,125.187767 197.574633,128.474789 C198.694472,131.762259 196.93709,135.334272 193.650054,136.453658" id="Fill-135" fill="#D9E1F1"></path>
                    <path d="M164.301178,146.93525 C161.014155,148.055085 157.441694,146.297709 156.322308,143.010684 C155.202922,139.723659 156.960295,136.151195 160.24687,135.032255 C163.53434,133.912421 167.106354,135.669348 168.22574,138.956821 C169.345126,142.243846 167.5882,145.815863 164.301178,146.93525" id="Fill-141" fill="#D9E1F1"></path>
                    <g id="Fill-147" transform="translate(70.280281, 88.186615) rotate(-7.000000) translate(-70.280281, -88.186615) ">
                        <use fill="#FFFFFF" fill-rule="evenodd" xlink:href="#path-1"></use>
                        <path stroke="#2C43A6" stroke-width="1" d="M87.8851271,78.9703071 L87.8851271,79.9703071 L46.6729303,79.9703071 C45.396667,79.9703071 44.3628329,81.0012473 44.3628329,82.2723989 L44.3628329,87.8287299 C44.3628329,95.2909717 50.4288935,101.340995 57.9124146,101.340995 L65.9516108,101.340995 C96.4904958,101.340995 104.785779,103.114006 110.682002,111.043614 C112.539259,113.540682 112.491235,117.584365 110.508884,119.886384 C108.016202,122.779821 106.919791,126.608787 107.59592,130.541926 C108.513089,135.876103 112.875374,140.151167 118.245762,140.982914 C125.39736,142.090051 131.920032,137.294181 133.065892,130.376096 C133.237604,129.339597 133.233331,128.222353 133.086042,126.891468 L127.188072,79.2495251 C124.511422,55.08544 104.641546,36.4328531 80.3185053,35.2293831 L9.67497422,35.2293831 C8.39904847,35.2293831 7.36532947,36.2604379 7.36532947,37.5319263 L7.36532947,43.0878059 C7.36532947,50.5499566 13.4312988,56.5996194 20.9149112,56.5996194 L73.6010689,56.5996194 L73.6010689,57.5996194 L28.1737259,57.5996194 C26.8979689,57.5996194 25.8640812,58.6309573 25.8640812,59.9021626 L25.8640812,65.4584936 C25.8640812,72.9206443 31.9300505,78.9703071 39.4136629,78.9703071 L87.8851271,78.9703071 Z"></path>
                    </g>
                    <path d="M22.3313374,65.2400914 L63.6129813,65.2400914 C64.0140017,65.2400914 64.3995302,65.0787974 64.6894511,64.7902145 L69.499483,59.9991863 L25.5009921,59.9991863 C23.7504008,59.9991863 22.3313374,61.4724298 22.3313374,63.289859 L22.3313374,65.2400914 Z" id="Fill-151" fill="#2C43A6" transform="translate(45.915410, 62.619639) rotate(-7.000000) translate(-45.915410, -62.619639) "></path>
                    <path d="M43.8094183,85.246014 L81.1234089,85.246014 C81.5265367,85.246014 81.9136638,85.0847059 82.204787,84.7965572 L87.0347649,80.005109 L46.9926613,80.005109 C45.2348107,80.005109 43.8094183,81.4784816 43.8094183,83.2960701 L43.8094183,85.246014 Z" id="Fill-153" fill="#2C43A6" transform="translate(65.422092, 82.625561) rotate(-7.000000) translate(-65.422092, -82.625561) "></path>
                </g>
                <path d="M72.6468711,151.514611 L65.7144792,151.514611 C64.8379182,148.071974 62.2367338,145.350331 58.9068818,144.379063 C58.518999,133.257593 49.6054952,124.362139 38.6598817,124.362139 C29.3032976,124.362139 21.4319474,130.863089 19.1001511,139.697358 C18.8652615,139.684445 18.6327718,139.66077 18.3942824,139.66077 C11.6814808,139.66077 6.15602639,144.842406 5.39916003,151.514611 L4.01502155,151.514611 C1.79782009,151.514611 0,153.356609 0,155.629666 C0,157.901801 1.79782009,159.744413 4.01502155,159.744413 L72.6468711,159.744413 C74.8640726,159.744413 76.6615927,157.901801 76.6615927,155.629666 C76.6615927,153.356609 74.8640726,151.514611 72.6468711,151.514611" id="Fill-157" stroke="#FFD72E" stroke-width="2"></path>
            </g>
            <rect id="Rectangle-2" x="0" y="0" width="500.003943" height="370"></rect>
        </g>
    </g>
</svg>