<svg id="text" xmlns="http://www.w3.org/2000/svg" xmlns:xlink="http://www.w3.org/1999/xlink" width="32" height="40" viewBox="0 0 32 40">
    <defs>
        <path id="a" d="M2 0h21.027L32 9.012V38a2 2 0 0 1-2 2H2a2 2 0 0 1-2-2V2a2 2 0 0 1 2-2z"/>
    </defs>
    <g fill="none" fill-rule="evenodd">
        <g>
            <use fill="#FFF" xlink:href="#a"/>
            <path stroke="#777" d="M31.5 9.218L22.819.5H2A1.5 1.5 0 0 0 .5 2v36A1.5 1.5 0 0 0 2 39.5h28a1.5 1.5 0 0 0 1.5-1.5V9.218z"/>
        </g>
        <path stroke="#777" d="M30.793 9.5L22.5 1.207V8A1.5 1.5 0 0 0 24 9.5h6.793z"/>
        <g>
            <path fill="#777" d="M15 14h12v1H15zM15 18h12v1H15z"/>
            <path fill="#2C6EE1" d="M10.774 16.795h-2.12l-.423.524-.485.58a1.696 1.696 0 0 0-.207.339.578.578 0 0 0-.05.232c0 .08.043.156.129.225.085.069.227.108.426.118V19H6l.05-.187c.182-.03.344-.094.485-.192.188-.134.46-.412.813-.832L12.198 12h.227l-.227 5.602c-.01.293-.016.47-.016.53 0 .229.047.395.14.5.092.104.246.164.461.181l-.05.187H9.77l.056-.187c.292-.027.46-.05.504-.07.094-.047.18-.146.258-.296.077-.15.124-.41.14-.78l.046-.872zm0-.414l.132-2.231-1.903 2.23h1.771z"/>
            <path fill="#777" d="M5 30h22v1H5zM5 34h22v1H5zM5 22h22v1H5zM5 26h22v1H5z"/>
        </g>
    </g>
</svg>
