<svg xmlns="http://www.w3.org/2000/svg" viewBox="0 0 86.96 37.52"><defs><style>.cls-1{fill:#1b499f;}.cls-2{fill:#fafbfc;}.cls-3{fill:#f8fafc;}.cls-4{fill:#214ea2;}.cls-5{fill:#dfe6f1;}.cls-6{fill:#e7ecf4;}.cls-7{fill:#eaeef6;}.cls-8{fill:#d7dfee;}.cls-9{fill:#d3dcec;}.cls-10{fill:#d8e0ee;}.cls-11{fill:#93a8d1;}.cls-12{fill:#c4d0e6;}.cls-13{fill:#2752a4;}.cls-14{fill:#c4cfe6;}.cls-15{fill:#d3dbec;}.cls-16{fill:#ccd6e9;}.cls-17{fill:#e8edf5;}.cls-18{fill:#bfcce4;}.cls-19{fill:#bac8e2;}.cls-20{fill:#dde3f0;}.cls-21{fill:#fefefe;}.cls-22{fill:#b9c6e1;}.cls-23{fill:#c9d4e8;}.cls-24{fill:#2450a3;}.cls-25{fill:#6483be;}.cls-26{fill:#365fab;}.cls-27{fill:#2b55a6;}.cls-28{fill:#1e4ba1;}</style></defs><title>Asset 2@2x</title><g id="Layer_2" data-name="Layer 2"><g id="Layer_1-2" data-name="Layer 1"><path class="cls-1" d="M.48.48q42.48,0,85,0c1.64,0,2,.32,2,2-.09,11.36-.07,22.72,0,34.08,0,1.2-.27,1.47-1.47,1.47q-42-.06-84,0C.72,38,.44,37.68.45,36.48.5,24.48.48,12.48.48.48Z" transform="translate(-0.45 -0.43)"/><path class="cls-2" d="M62.88,23.52c-.24,1.12.1,1.59,1.17.91s1.77-1.3,2.64-2A1,1,0,0,1,67,23c-.21,1.68,1.17,1,1.91,1.3a4.22,4.22,0,0,0,3.08.23c1.39,0,2.61-.19,2.51-2,.54-2.24.83-2.34,2.6-.94a6.41,6.41,0,0,1-6.49,4.28c-.72,0-2.1-.56-2,1.14l0-.06-.56-.07c-.13.27-.2.25-.21,0-.06-.49-.13-.88-.85-.8C52,27.71,36.8,28.44,22,32.13A43.11,43.11,0,0,0,14.18,35c-.46.22-1.11.85-1.46.18-.45-.85.54-1,1-1.22,5.94-3,12.34-4.31,18.84-5.16q13.53-1.78,27.11-3.21a2.66,2.66,0,0,0,2.73-2.1C62.58,23.3,62.73,23.3,62.88,23.52Z" transform="translate(-0.45 -0.43)"/><path class="cls-2" d="M79.07,11c.41-2.72,1.85-5,3-7.44.32-.68,1-1.45,1.84-1.33,1.12.16.71,1.29.73,2,0,1.29,1.13,2.34.42,3.86-.89,1.93-1.35,4-4.16,3.56C80,12.14,79.47,11.78,79.07,11Z" transform="translate(-0.45 -0.43)"/><path class="cls-3" d="M79.07,11l1.81.61c.65,1.13-.25,2-.62,2.84-1,2.41-2.09,4.78-3.14,7.16-1-.17-2.15-.54-2.6.94C75.18,18.35,77.19,14.69,79.07,11Z" transform="translate(-0.45 -0.43)"/><path class="cls-4" d="M62.9,29a.52.52,0,0,1,.19-.2c1.28-.31,2.21-1.5,3.64-1.45l.55,0c-.72,2.76-1.68,5.33-4.81,6.23l-.59,0c-1.21-.64-.74-1.56-.37-2.42S62.53,29.79,62.9,29Z" transform="translate(-0.45 -0.43)"/><path class="cls-5" d="M55.17,13.4c-.45.12-1,.11-1.32.39-2.05,1.85-4.62,9-4.25,11.69-2-.65-.34-2.4-1.11-3.37q-.23-.13-.15-.3c0-.1.1-.15.14-.15,1.35-2.57,3.27-4.84,3.32-8,0-.73,1.73-1.38,2.9-1.61C54.83,12.49,55.5,12.77,55.17,13.4Z" transform="translate(-0.45 -0.43)"/><path class="cls-6" d="M10.52,26.31c-1.18.7-2.45,1.43-3.73.48s-.62-2.17-.51-3.33c.06-.63.63-1.31-.42-1.74-.53-.22-.15-.87.12-.91,1.81-.24,1.8-2,2.7-3,.44,0,.77,0,.51.59-.11,1.84-1.32,3.28-1.79,5-.8,2.92-.32,3.35,2.63,2.54C10.56,25.61,10.58,25.92,10.52,26.31Z" transform="translate(-0.45 -0.43)"/><path class="cls-7" d="M30.72,22.07c1-1.55,2.54-2.82,3-4.76,1,0,.92.72.88,1.4-1.92,2.91-3,6.31-5.2,9.05-.39.48-.7,1.24-1.47,1-.94-.33-.65-1.1-.41-1.79a5.34,5.34,0,0,0,1.05-.57,25,25,0,0,0,1.66-2.83C30.43,23.08,30.5,22.55,30.72,22.07Z" transform="translate(-0.45 -0.43)"/><path class="cls-8" d="M48.48,21.66c0,.15,0,.3,0,.45C47,23,45.21,23.21,44,24.59c-.23.26-.81.62-1.15-.08s-.05-1.68-1-2.08c-.17-.27-.39-.54-.13-.88.58-1.64,2.14-1.54,3.43-1.87a1,1,0,0,1,1.34.95C46.37,22.66,47.41,22.12,48.48,21.66Z" transform="translate(-0.45 -0.43)"/><path class="cls-9" d="M58.64,21.14c.49,1.08-1.89,1.61-.56,2.86q.48.24,0,.48a20.35,20.35,0,0,1-6.19-.72c1.51-1.34,2.53-3.32,4.66-4.13.41-.27.6,0,.76.32.07.85-.76,1.16-.93,1.66a2,2,0,0,1,1.7-.84A1,1,0,0,1,58.64,21.14Z" transform="translate(-0.45 -0.43)"/><path class="cls-10" d="M72,24.56c-1.1.7-2.3.41-3.47.34a2.64,2.64,0,0,0-.78-.85c-.25-.35-.38-.7-.06-1.07,1.92.37,2.33-1.35,3.2-2.37.68-.8.93-2,2.66-2.55-.91,2.62-3.21,4-3.64,6.4Z" transform="translate(-0.45 -0.43)"/><path class="cls-8" d="M41.3,19.24c-.83,2.92-2.85,5.05-4.66,7.34,1.11-3,3.31-5.31,4.3-8.3C41.71,18.36,41.55,18.78,41.3,19.24Z" transform="translate(-0.45 -0.43)"/><path class="cls-10" d="M31.25,14.42a31.8,31.8,0,0,0-7.62,7A16.68,16.68,0,0,1,30.74,14,.78.78,0,0,1,31.25,14.42Z" transform="translate(-0.45 -0.43)"/><path class="cls-11" d="M55.17,13.4c-.11-.47-.8-.76-.47-1.38,2.34,1.14,5-.13,7.35,1C59.79,13.77,57.46,13.32,55.17,13.4Z" transform="translate(-0.45 -0.43)"/><path class="cls-12" d="M62.47,33.62c2.57-1.33,3.62-3.83,4.81-6.23l.62-.54.13-.08.08.12a14,14,0,0,1-3.43,6C64.14,33.47,63.59,34.68,62.47,33.62Z" transform="translate(-0.45 -0.43)"/><path class="cls-13" d="M42.18,22.06c1.27-1.71,1.45.18,1.82.65,1.21,1.52-.8,1.16-1.15,1.8l-1.2.39C41.18,23.83,41.05,22.82,42.18,22.06Z" transform="translate(-0.45 -0.43)"/><path class="cls-6" d="M67.7,23l1.12.65C67.66,25,67,24.51,66.72,23l0-.54c.74-1.13.86-3.78,2.08-3.19,1.58.76-1.3,1.86-1,3.22A1.35,1.35,0,0,1,67.7,23Z" transform="translate(-0.45 -0.43)"/><path class="cls-14" d="M28.8,27.36c-.78.92-.94-.09-1.32-.42a15.77,15.77,0,0,1,3.24-4.87c.06.48.52.95,0,1.44C30.08,24.79,29,25.83,28.8,27.36Z" transform="translate(-0.45 -0.43)"/><path class="cls-7" d="M31.25,14.42,30.74,14c1-.55,2.07-1.58,3.26-.76s.63,2.31.48,3.54c-.42,0-.73,0-.47-.55C33.94,13.69,33.78,13.58,31.25,14.42Z" transform="translate(-0.45 -0.43)"/><path class="cls-15" d="M62.88,23.52l-.22,0h-.22c.85-1.64.85-1.64,0-1.79a.62.62,0,0,1-.48-.61c0-.07.08-.19.13-.19,1-.09,2.43-1.18,2.69-.55C65.35,21.8,63.73,22.57,62.88,23.52Z" transform="translate(-0.45 -0.43)"/><path class="cls-16" d="M34,16.22l.47.55c.13.74.53.6.93.27a7,7,0,0,1,3-1.54.61.61,0,0,1,.51.36,20.41,20.41,0,0,0-4.37,2.85l-.88-1.4Z" transform="translate(-0.45 -0.43)"/><path class="cls-17" d="M10,14.43c-.25-.1-.67.16-.71-.34a.41.41,0,0,1,.31-.2c1.52.34.67-1.94,1.92-1.76.93.13-.21,2.09,1.42,1.77.11.09.15.19.11.28s-.07.15-.11.15c-.64.28-1.49-.23-2,.51C10.45,15.12,10.3,14.61,10,14.43Z" transform="translate(-0.45 -0.43)"/><path class="cls-18" d="M62.9,29c0,1.6-2.39,2.68-1,4.59-1.2-.31-1.33-.41-1.14-1.44A4.2,4.2,0,0,1,62.9,29Z" transform="translate(-0.45 -0.43)"/><path class="cls-19" d="M62,21.13l.48.61c-1.26,1.23-2.31,2.78-4.36,2.74V24C59.85,23.69,60.82,22.29,62,21.13Z" transform="translate(-0.45 -0.43)"/><path class="cls-19" d="M10.52,26.31,10,25.89c1.52-1,3-2,4.48-3.11A9.87,9.87,0,0,1,10.52,26.31Z" transform="translate(-0.45 -0.43)"/><path class="cls-16" d="M38.93,15.86l-.51-.36c3.25-.39,4,.53,2.88,3.74l-.36-1C41.18,16.72,40.72,15.74,38.93,15.86Z" transform="translate(-0.45 -0.43)"/><path class="cls-20" d="M13,14.33V13.9l3.38-.8C15.36,14.3,14.14,14.24,13,14.33Z" transform="translate(-0.45 -0.43)"/><path class="cls-16" d="M10,14.43l.93.41L9.19,18.36l-.51-.59C9,16.59,10,15.7,10,14.43Z" transform="translate(-0.45 -0.43)"/><path class="cls-16" d="M68.67,27l0,.06a5.17,5.17,0,0,1,1.12.22,1.64,1.64,0,0,1,1.16,1.56.45.45,0,0,1-.25.36c-.87.19-.82-.74-1.27-1.08A1.47,1.47,0,0,1,68.67,27Z" transform="translate(-0.45 -0.43)"/><path class="cls-21" d="M17.89,21.77c.87-.73,1.76-.69,3.1-.14A3.81,3.81,0,0,1,17.89,21.77Z" transform="translate(-0.45 -0.43)"/><path class="cls-16" d="M58.64,21.14l-.54,0c-.39-.32-1-.43-1-1.1l-.56-.39a1.54,1.54,0,0,1,2.15-.15C59.32,20,59.12,20.6,58.64,21.14Z" transform="translate(-0.45 -0.43)"/><path class="cls-22" d="M42.18,22.06c-.64.86-.19,1.92-.53,2.84-1.5-1.15-.74-2.25.08-3.35Z" transform="translate(-0.45 -0.43)"/><path class="cls-23" d="M66.73,27.36c-1.21.5-2.21,1.51-3.64,1.45C64.09,27.78,65.14,26.89,66.73,27.36Z" transform="translate(-0.45 -0.43)"/><path class="cls-24" d="M66.72,23c.54.73,1.06,1.58,2.1.62.4.53-.1.86-.28,1.27H64.6Z" transform="translate(-0.45 -0.43)"/><path class="cls-25" d="M83.62,6.75A3.87,3.87,0,0,1,82,10.69Z" transform="translate(-0.45 -0.43)"/><path class="cls-26" d="M28.8,27.36c-.52-1.88.84-2.8,1.95-3.85A13.56,13.56,0,0,1,28.8,27.36Z" transform="translate(-0.45 -0.43)"/><path class="cls-27" d="M44.94,22.11c-.44-.05-.74-.26-.76-.73a1.06,1.06,0,0,1,.82-1c.58-.2.63.27.62.66S45.5,22,44.94,22.11Z" transform="translate(-0.45 -0.43)"/><path class="cls-28" d="M57.11,20c.73,0,1.06.38,1,1.1-.84.7-1.14,1.92-2.23,2.36-.48.19-1,.79-1.48.29s-.16-1.18.2-1.7A6,6,0,0,1,57.11,20Z" transform="translate(-0.45 -0.43)"/></g></g></svg>